<?xml version="1.0" encoding="utf-8"?>
<!--Designed by Vexels.com - 2018 All Rights Reserved - https://vexels.com/terms-and-conditions/-->
<svg version="1.1" id="Layer_1" xmlns="http://www.w3.org/2000/svg" xmlns:xlink="http://www.w3.org/1999/xlink" x="0px" y="0px"
	 viewBox="0 0 1200 1200" enable-background="new 0 0 1200 1200" xml:space="preserve">
<g>
	<path fill="none" d="M590.919,1031.394h18.163l0.417-80.187c-3.631-2.795-6.982-6.008-9.499-9.919
		c-2.516,3.912-5.867,7.124-9.499,9.919L590.919,1031.394z"/>
	<path fill="none" d="M609.499,233.984l-0.417-65.378h-18.163l-0.417,65.378c4.192,4.053,7.543,8.942,9.499,14.25
		C601.956,242.926,605.31,238.036,609.499,233.984z"/>
	<path fill="none" d="M868.364,500.113c-1.675,6.288-3.211,12.435-4.749,18.58l30.034-0.139v-18.161L868.364,500.113z"/>
	<path fill="none" d="M336.386,518.693c-1.539-6.145-3.074-12.292-4.749-18.58l-25.285,0.28v18.161L336.386,518.693z"/>
	<path fill="#111111" d="M435.293,756.604c17.462,11.177,33.248,22.351,47.219,37.719c18.303,20.255,30.175,45.402,52.806,61.747
		c37.44,26.962,91.922,26.962,129.362,0c22.632-16.345,34.507-41.491,52.806-61.747c13.971-15.368,29.757-26.543,47.219-37.719
		c-1.679-57.277-0.698-114.136,6.428-170.993c6.842-55.742,19.698-109.387,37.437-162.751l-32.968-39.395
		c-31.85,3.632-61.607,2.653-92.623-6.566c-20.115-5.868-34.647-15.927-57.556-12.573c-8.941,1.397-17.462,4.889-25.425,9.221
		c-7.963-4.331-16.484-7.824-25.425-9.221c-22.912-3.354-37.44,6.705-57.556,12.573c-31.016,9.219-60.77,10.198-92.623,6.566
		l-32.968,39.395c17.742,53.365,30.595,107.009,37.44,162.751C435.994,642.468,436.969,699.327,435.293,756.604z M430.404,398.412
		c31.016,3.632,60.629,0.979,90.527-7.822c18.019-5.449,31.152-15.229,51.408-12.154c9.919,1.397,19.281,6.286,27.661,11.316
		c8.521-5.03,17.742-9.919,27.661-11.316c20.255-3.075,33.389,6.705,51.411,12.154c29.894,8.801,59.511,11.454,90.524,7.822
		l22.912,27.522c-17.045,51.549-28.779,103.936-35.485,157.862c-6.845,54.901-8.384,109.943-6.705,165.265
		c-16.204,10.198-30.315,21.513-43.308,35.763c-17.185,18.859-30.038,44.844-50.573,59.791c-32.407,23.33-80.464,23.33-112.875,0
		c-20.536-14.947-33.392-40.932-50.574-59.791c-12.99-14.25-27.101-25.565-43.304-35.763c1.675-55.322,0.137-110.364-6.708-165.265
		c-6.705-53.926-18.44-106.313-35.485-157.862L430.404,398.412z"/>
	<path fill="#111111" d="M353.57,638.139c3.211,53.086,0.417,105.754-5.867,158.699c31.289,16.345,59.371,33.669,81.446,62.028
		c12.85,16.623,25.425,33.528,39.533,48.894v128.665L324.09,1150h551.82l-144.592-113.576V907.759
		c14.111-15.366,26.683-32.271,39.536-48.894c22.071-28.359,50.15-45.682,81.446-62.028c-6.288-52.945-9.081-105.613-6.008-158.699
		h51.828l113.576,144.59V230.911l-87.313,111.061l-77.955-84.379c-20.533,12.854-35.902,21.655-60.766,20.257
		c-19-1.117-37.16-6.565-54.345-14.249V163.576L875.91,50H324.093l144.588,113.576v100.026
		c-17.185,7.684-35.344,13.132-54.345,14.249c-24.865,1.398-40.231-7.403-60.766-20.257l-77.955,84.379l-87.313-111.061v551.817
		l113.576-144.59H353.57z M833.72,1135.75H366.283l116.647-92.481V922.288c1.819,1.817,3.915,3.494,5.871,5.309
		c0.137,0,0.137,0.14,0.28,0.28c0,0,0.137,0.139,0.277,0.139c0.28,0.42,0.698,0.698,1.118,0.978c0,0.14,0.137,0.14,0.277,0.28
		c0.28,0.28,0.701,0.559,0.981,0.837c0,0,0,0,0.137,0c0,0.14,0.14,0.28,0.28,0.28c0,0.14,0.14,0.14,0.28,0.279
		c0.277,0.14,0.42,0.42,0.698,0.698c0.28,0.14,0.561,0.42,0.838,0.56c0.28,0.279,0.561,0.419,0.698,0.698
		c0.28,0.14,0.561,0.419,0.838,0.557c0.28,0.281,0.42,0.421,0.701,0.56c0.277,0.28,0.701,0.559,0.978,0.839
		c0.14,0,0.277,0.138,0.421,0.279c0.417,0.279,0.698,0.558,0.978,0.698c0.277,0.28,0.557,0.42,0.838,0.7
		c0.277,0.139,0.557,0.418,0.978,0.697c0,0,0.14,0.14,0.277,0.14v114.833l-84.239,66.079h367.134l-84.239-66.079V937.097
		c0.14,0,0.277-0.14,0.557-0.279c0.14-0.14,0.14-0.14,0.28-0.28c0.14-0.14,0.277-0.14,0.417-0.279c0.28-0.28,0.701-0.56,0.978-0.84
		h0.14c0.14-0.139,0.14-0.139,0.28-0.279c0.14,0,0.14-0.139,0.28-0.139c0.277-0.28,0.557-0.419,0.838-0.698
		c0.14-0.141,0.28-0.141,0.28-0.279c0.14,0,0.277-0.14,0.277-0.14c0.28-0.279,0.561-0.56,0.838-0.7
		c0.143-0.138,0.28-0.138,0.28-0.279c0.14,0,0.28-0.139,0.28-0.139c0.42-0.42,0.838-0.7,1.118-0.979
		c0.137-0.14,0.28-0.14,0.28-0.279c0.137,0,0.277-0.14,0.417-0.14c0.838-0.698,1.539-1.397,2.373-2.094
		c0.143-0.14,0.28-0.14,0.28-0.28c2.657-2.235,5.17-4.471,7.546-6.706v120.981L833.72,1135.75z M655.46,1075.819v-116.65
		c9.362-2.096,18.583-6.147,27.244-11.177c0.838-0.42,1.675-0.837,2.516-1.397v112.18l57.275,44.984H457.508l57.275-44.984v-112.18
		c0.838,0.56,1.679,0.977,2.513,1.397c8.664,5.03,17.882,9.081,27.244,11.177v116.65H655.46z M397.432,606.426
		c-5.444-55.042-16.761-109.664-34.644-162.192c-10.336-30.316-22.772-59.932-37.16-88.571l37.02-39.814
		c17.045,6.985,35.762,9.221,54.065,8.103c37.581-1.956,74.18-17.045,106.033-36.6c6.565-3.913,12.853-8.103,19.418-11.736
		c8.104,9.081,21.093,15.227,33.389,13.831c10.617-1.117,20.119-6.706,24.447-16.625c4.329,9.919,13.831,15.508,24.447,16.625
		c12.295,1.397,25.285-4.75,33.389-13.831c6.565,3.633,12.853,7.823,19.418,11.736c31.853,19.555,68.453,34.644,106.033,36.6
		c18.3,1.118,36.883-1.117,54.065-8.103l37.02,39.814c-14.388,28.639-26.82,58.256-37.16,88.571
		c-17.882,52.528-29.197,107.15-34.647,162.192c-5.447,54.762-5.03,110.083,0.42,164.567
		c-26.403,15.646-49.736,35.483-68.453,59.792c-21.794,27.94-42.47,58.116-73.482,76.555c-9.919,5.868-18.86,12.294-27.101,3.214
		c-5.45-6.008-12.155-8.802-18.303-9.081c-5.727-0.279-11.595,2.094-15.646,6.147c-4.052-4.053-9.919-6.426-15.786-6.147
		c-6.144,0.279-12.713,3.072-18.159,9.081c-8.244,9.08-17.185,2.654-27.104-3.214c-31.012-18.44-51.825-48.755-73.482-76.555
		c-18.717-24.309-42.19-44.145-68.453-59.792C402.465,716.51,402.882,661.189,397.432,606.426z M457.508,96.24h284.988
		l-57.275,44.984v98.349c-6.291-3.212-12.996-6.426-19.701-9.221c-3.351-1.257-6.705-2.514-10.059-3.492V124.18H544.54V226.86
		c-3.354,0.978-6.708,2.235-10.059,3.492c-6.708,2.794-13.41,6.008-19.698,9.221v-98.349L457.508,96.24z M558.648,138.151h82.704
		v85.775c-6.288-0.698-12.432-0.419-17.882,1.397l-0.561-70.827h-45.821l-0.557,70.827c-5.45-1.816-11.598-2.095-17.882-1.397
		V138.151z M590.919,168.606h18.163l0.417,65.378c-4.189,4.053-7.543,8.942-9.499,14.25c-1.956-5.308-5.307-10.198-9.499-14.25
		L590.919,168.606z M600,941.288c2.516,3.912,5.867,7.124,9.499,9.919l-0.417,80.187h-18.163l-0.417-80.187
		C594.133,948.412,597.484,945.199,600,941.288z M622.909,1045.505l0.561-87.312c5.867,1.956,12.015,2.793,17.882,2.793v100.864
		h-82.704V960.985c5.867,0,12.015-0.837,17.882-2.793l0.557,87.312H622.909z M997.449,273.24v467.298l-92.483-116.51h-57.696
		c0.28-2.934,0.557-5.867,0.838-8.662c0.28-3.073,0.557-6.145,0.838-9.08h64.681l66.08,84.1V323.253l-66.08,84.239h-12.432
		c4.749-10.758,9.779-21.514,15.086-31.99L997.449,273.24z M907.62,532.384v-45.962l-35.344-0.279
		c1.816-6.007,3.635-12.154,5.59-18.161h46.238v82.842h-67.194c1.118-6.007,2.376-12.013,3.631-18.02L907.62,532.384z
		 M863.614,518.693c1.539-6.145,3.074-12.292,4.749-18.58l25.285,0.28v18.161L863.614,518.693z M938.075,564.935V454.012h-55.46
		c3.771-10.896,7.963-21.652,12.432-32.269h25.425l44.983-57.417v284.988l-44.983-57.138h-69.851
		c1.121-9.081,2.376-18.161,3.775-27.241H938.075z M784.966,292.101c22.909,1.117,39.813-4.191,59.091-16.346l69.013,74.88
		c-18.023,33.528-33.389,67.755-45.684,103.797c-36.74,107.989-43.585,221.844-30.315,334.302
		c-30.315,15.786-56.297,34.226-77.394,61.469c-15.646,20.255-30.175,40.932-48.895,58.674
		c-16.764,15.926-42.19,35.483-66.08,37.718c-13.69,1.398-30.732-4.61-35.902-18.58c-4.189-11.175,6.565-16.903,14.668-7.963
		c6.008,6.566,10.059,9.918,19.558,8.94c19.418-1.816,42.049-20.256,55.603-32.97c17.879-17.043,31.99-37.159,47.076-56.578
		c19.558-25.425,44.286-45.404,72.367-60.77c-12.295-110.503-3.494-224.219,32.548-329.833
		c11.177-32.69,24.728-64.541,40.935-95.554l-50.851-54.763c-17.602,9.499-36.743,12.295-56.721,11.316
		c-34.924-1.957-69.851-16.484-99.325-34.506c-11.037-6.707-21.514-13.691-32.551-18.58c-1.956,10.478-15.229,19.837-26.123,18.58
		c-21.374-2.375-16.624-27.941,0.137-35.763c17.185-7.963,51.131,11.595,68.873,21.513
		C722.934,276.593,752.415,290.284,784.966,292.101z M366.283,64.249H833.72l-116.65,92.482v100.164
		c-5.17-2.653-10.199-5.447-15.229-8.242c-0.838-0.419-1.675-0.837-2.513-1.396V148.07l84.239-66.079H416.433l84.239,66.079v99.187
		c-0.838,0.559-1.675,0.977-2.513,1.396c-5.03,2.795-10.059,5.589-15.229,8.242V156.731L366.283,64.249z M355.943,275.755
		c19.278,12.154,36.182,17.463,59.094,16.346c32.551-1.817,62.025-15.508,89.966-31.015c17.742-9.918,51.688-29.476,68.873-21.513
		c16.761,7.822,21.514,33.388,0.14,35.763c-10.897,1.257-24.17-8.102-26.126-18.58c-11.034,4.889-21.514,11.873-32.551,18.58
		c-29.474,18.022-64.401,32.549-99.328,34.506c-19.975,0.979-39.116-1.816-56.718-11.316l-50.851,54.763
		c16.207,31.013,29.757,62.864,40.935,95.554c36.042,105.614,44.843,219.33,32.551,329.833
		c28.079,15.366,52.806,35.344,72.364,60.77c15.086,19.419,29.197,39.535,47.079,56.578c13.55,12.713,36.179,31.153,55.6,32.97
		c9.499,0.978,13.55-2.375,19.558-8.94c8.104-8.94,18.86-3.212,14.668,7.963c-5.307,13.97-22.211,19.978-35.902,18.58
		c-23.89-2.235-49.315-21.792-66.08-37.718c-18.72-17.742-33.248-38.419-48.895-58.674c-21.096-27.243-47.079-45.682-77.394-61.469
		c13.27-112.459,6.428-226.313-30.315-334.302c-12.292-36.042-27.802-70.269-45.684-103.797L355.943,275.755z M292.38,486.422
		v45.962l47.079,0.42c1.258,6.007,2.516,12.013,3.631,18.02h-67.194v-82.842h46.238c1.959,6.007,3.775,12.154,5.59,18.161
		L292.38,486.422z M331.636,500.113c1.675,6.288,3.211,12.435,4.749,18.58l-30.034-0.139v-18.161L331.636,500.113z M261.925,454.012
		v110.923h83.542c1.535,9.08,2.794,18.16,3.912,27.241h-69.851l-44.983,57.138V364.326l44.983,57.417h25.425
		c4.469,10.617,8.661,21.373,12.436,32.269H261.925z M202.551,740.538V273.24l81.169,102.12
		c5.31,10.618,10.336,21.374,15.089,32.132h-12.436l-66.08-84.239v367.133l66.08-84.1h64.681c0.28,2.935,0.561,6.007,0.838,9.08
		c0.28,2.795,0.561,5.728,0.838,8.662h-57.696L202.551,740.538z"/>
	<path fill="#CFA16D" d="M576.531,958.192c-5.867,1.956-12.015,2.793-17.882,2.793v100.864h82.704V960.985
		c-5.867,0-12.015-0.837-17.882-2.793l-0.561,87.312h-45.821L576.531,958.192z"/>
	<path fill="#CFA16D" d="M856.909,550.825h67.194v-82.842h-46.238c-1.956,6.007-3.775,12.154-5.59,18.161l35.344,0.279v45.962
		l-47.079,0.42C859.286,538.811,858.027,544.818,856.909,550.825z"/>
	<path fill="#D3223D" d="M850.621,592.176h69.851l44.983,57.138V364.326l-44.983,57.417h-25.425
		c-4.469,10.617-8.661,21.373-12.432,32.269h55.46v110.923h-83.678C852.998,574.015,851.743,583.095,850.621,592.176z"/>
	<path fill="#CFA16D" d="M913.627,407.492l66.08-84.239v367.133l-66.08-84.1h-64.681c-0.28,2.935-0.557,6.007-0.838,9.08
		c-0.28,2.795-0.557,5.728-0.838,8.662h57.696l92.483,116.51V273.24l-81.169,102.262c-5.307,10.477-10.336,21.233-15.086,31.99
		H913.627z"/>
	<path fill="#CFA16D" d="M576.531,225.323l0.557-70.827h45.821l0.561,70.827c5.45-1.816,11.595-2.095,17.882-1.397v-85.775h-82.704
		v85.775C564.933,223.228,571.08,223.507,576.531,225.323z"/>
	<path fill="#D3223D" d="M534.481,230.352c3.351-1.257,6.705-2.514,10.059-3.492V124.18H655.46V226.86
		c3.354,0.978,6.708,2.235,10.059,3.492c6.705,2.794,13.41,6.008,19.701,9.221v-98.349l57.275-44.984H457.508l57.275,44.984v98.349
		C521.071,236.361,527.773,233.147,534.481,230.352z"/>
	<path fill="#CFA16D" d="M482.93,256.895c5.17-2.653,10.199-5.447,15.229-8.242c0.838-0.419,1.675-0.837,2.513-1.396V148.07
		l-84.239-66.079h367.134l-84.239,66.079v99.187c0.838,0.559,1.675,0.977,2.513,1.396c5.03,2.795,10.059,5.589,15.229,8.242V156.731
		l116.65-92.482H366.283l116.647,92.482V256.895z"/>
	<path fill="#CFA16D" d="M275.896,467.983v82.842h67.194c-1.115-6.007-2.373-12.013-3.631-18.02l-47.079-0.42v-45.962l35.344-0.279
		c-1.816-6.007-3.631-12.154-5.59-18.161H275.896z"/>
	<path fill="#D3223D" d="M279.527,421.743l-44.983-57.417v284.988l44.983-57.138h69.851c-1.118-9.081-2.376-18.161-3.912-27.241
		h-83.542V454.012h55.463c-3.775-10.896-7.967-21.652-12.436-32.269H279.527z"/>
	<path fill="#CFA16D" d="M351.892,615.366c-0.277-3.073-0.557-6.145-0.838-9.08h-64.681l-66.08,84.1V323.253l66.08,84.239h12.436
		c-4.753-10.758-9.779-21.514-15.089-32.132l-81.169-102.12v467.298l92.483-116.51h57.696
		C352.452,621.094,352.172,618.161,351.892,615.366z"/>
	<path fill="#D3223D" d="M599.302,311.937h-3.775v7.964h3.775c1.956,0,1.816-2.515,1.816-4.052
		C601.118,314.033,601.398,311.937,599.302,311.937z"/>
	<path fill="#D3223D" d="M465.468,830.785c21.657,27.801,42.47,58.116,73.482,76.555c9.919,5.868,18.86,12.294,27.104,3.214
		c5.447-6.008,12.015-8.802,18.159-9.081c5.867-0.279,11.735,2.094,15.786,6.147c4.052-4.053,9.919-6.426,15.646-6.147
		c6.148,0.279,12.853,3.072,18.303,9.081c8.24,9.08,17.182,2.654,27.101-3.214c31.012-18.44,51.688-48.615,73.482-76.555
		c18.717-24.309,42.049-44.145,68.453-59.792c-5.45-54.483-5.867-109.805-0.42-164.567c5.45-55.042,16.764-109.664,34.647-162.192
		c10.34-30.316,22.772-59.932,37.16-88.571l-37.02-39.814c-17.182,6.985-35.765,9.221-54.065,8.103
		c-37.581-1.956-74.18-17.045-106.033-36.6c-6.565-3.913-12.853-8.103-19.418-11.736c-8.104,9.081-21.093,15.227-33.389,13.831
		c-10.617-1.117-20.119-6.706-24.447-16.625c-4.329,9.919-13.831,15.508-24.447,16.625c-12.295,1.397-25.285-4.75-33.389-13.831
		c-6.565,3.633-12.853,7.823-19.418,11.736c-31.853,19.555-68.453,34.644-106.033,36.6c-18.303,1.118-37.02-1.117-54.065-8.103
		l-37.02,39.814c14.388,28.639,26.824,58.256,37.16,88.571c17.882,52.528,29.2,107.15,34.644,162.192
		c5.45,54.762,5.033,110.083-0.417,164.567C423.278,786.639,446.751,806.476,465.468,830.785z M660.349,293.358l40.237,9.079
		l-4.612,20.537l-21.374-4.891l-0.838,3.772l18.72,4.191l-4.612,20.537l-18.72-4.191l-5.587,25.006l-18.997-4.331L660.349,293.358z
		 M703.797,353.289l-4.886,22.071l-18.723-4.189l4.89-22.073L703.797,353.289z M636.603,340.158v22.491h-19.698v-22.491H636.603z
		 M575.553,291.123h25.008c14.528,0,20.392,11.734,20.392,24.726c0,13.969-5.727,24.588-20.953,24.588h-4.472v22.211h-19.975
		V291.123z M565.076,354.686l0.978,5.029l-18.86,3.772l-4.329-22.073l18.857-3.772L565.076,354.686z M536.297,293.497l4.89,20.396
		l-21.514,4.89l0.978,3.771l18.58-4.33l4.749,20.536l-18.72,4.331l5.871,25.006l-19.004,4.191l-15.923-69.571L536.297,293.497z
		 M391.428,422.86l32.968-39.395c31.853,3.632,61.607,2.653,92.623-6.566c20.115-5.868,34.644-15.927,57.556-12.573
		c8.941,1.397,17.462,4.889,25.425,9.221c7.963-4.331,16.484-7.824,25.425-9.221c22.909-3.354,37.44,6.705,57.556,12.573
		c31.016,9.219,60.773,10.198,92.623,6.566l32.968,39.395c-17.739,53.365-30.595,107.009-37.437,162.751
		c-7.126,56.857-8.107,113.716-6.428,170.993c-17.462,11.177-33.248,22.351-47.219,37.719c-18.3,20.255-30.175,45.402-52.806,61.747
		c-37.44,26.962-91.922,26.962-129.362,0c-22.632-16.345-34.503-41.491-52.806-61.747c-13.971-15.368-29.757-26.543-47.219-37.719
		c1.675-57.277,0.701-114.136-6.425-170.993C422.023,529.869,409.17,476.225,391.428,422.86z"/>
	<path fill="#CFA16D" d="M717.07,922.288c-2.376,2.235-4.89,4.471-7.546,6.706c0,0.14-0.137,0.14-0.28,0.28
		c-0.834,0.698-1.535,1.396-2.373,2.094c-0.14,0-0.28,0.14-0.417,0.14c0,0.139-0.143,0.139-0.28,0.279
		c-0.28,0.279-0.698,0.559-1.118,0.979c0,0-0.14,0.139-0.28,0.139c0,0.14-0.137,0.14-0.28,0.279c-0.277,0.14-0.557,0.421-0.838,0.7
		c0,0-0.137,0.14-0.277,0.14c0,0.138-0.14,0.138-0.28,0.279c-0.28,0.28-0.561,0.418-0.838,0.698c-0.14,0-0.14,0.139-0.28,0.139
		c-0.14,0.14-0.14,0.14-0.28,0.279h-0.14c-0.277,0.28-0.698,0.56-0.978,0.84c-0.14,0.139-0.277,0.139-0.417,0.279
		c-0.14,0.139-0.14,0.139-0.28,0.28c-0.28,0.139-0.417,0.279-0.557,0.279v114.833l84.239,66.079H416.433l84.239-66.079V937.097
		c-0.137,0-0.277-0.14-0.277-0.14c-0.421-0.279-0.701-0.558-0.978-0.697c-0.28-0.28-0.561-0.42-0.838-0.7
		c-0.28-0.14-0.561-0.419-0.978-0.698c-0.143-0.14-0.28-0.279-0.421-0.279c-0.277-0.28-0.701-0.558-0.978-0.839
		c-0.28-0.139-0.42-0.279-0.701-0.56c-0.277-0.138-0.557-0.417-0.838-0.557c-0.137-0.28-0.417-0.42-0.698-0.698
		c-0.277-0.14-0.557-0.42-0.838-0.56c-0.277-0.279-0.42-0.558-0.698-0.698c-0.14-0.139-0.28-0.139-0.28-0.279
		c-0.14,0-0.28-0.14-0.28-0.28c-0.137,0-0.137,0-0.137,0c-0.28-0.278-0.701-0.557-0.981-0.837c-0.14-0.14-0.277-0.14-0.277-0.28
		c-0.421-0.28-0.838-0.558-1.118-0.978c-0.14,0-0.277-0.139-0.277-0.139c-0.143-0.14-0.143-0.28-0.28-0.28
		c-1.956-1.816-4.052-3.492-5.871-5.309v120.981l-116.647,92.481H833.72l-116.65-92.481V922.288z"/>
	<path fill="#D3223D" d="M517.296,947.993c-0.834-0.42-1.675-0.837-2.513-1.397v112.18l-57.275,44.984h284.988l-57.275-44.984
		v-112.18c-0.841,0.56-1.679,0.977-2.516,1.397c-8.661,5.03-17.882,9.081-27.244,11.177v116.65H544.54v-116.65
		C535.179,957.073,525.96,953.023,517.296,947.993z"/>
	<path fill="#CFA16D" d="M449.684,749.061c16.204,10.198,30.315,21.513,43.304,35.763c17.182,18.859,30.038,44.844,50.574,59.791
		c32.411,23.33,80.468,23.33,112.875,0c20.536-14.947,33.389-40.932,50.573-59.791c12.993-14.25,27.104-25.565,43.308-35.763
		c-1.679-55.322-0.14-110.364,6.705-165.265c6.705-53.926,18.44-106.313,35.485-157.862l-22.912-27.522
		c-31.012,3.632-60.63,0.979-90.524-7.822c-18.023-5.449-31.156-15.229-51.411-12.154c-9.919,1.397-19.141,6.286-27.661,11.316
		c-8.381-5.03-17.742-9.919-27.661-11.316c-20.255-3.075-33.389,6.705-51.408,12.154c-29.898,8.801-59.511,11.454-90.527,7.822
		l-22.912,27.522c17.045,51.549,28.779,103.936,35.485,157.862C449.821,638.697,451.36,693.739,449.684,749.061z M436.411,413.361
		c29.757,2.933,59.932-0.698,88.571-9.219c15.226-4.471,28.636-14.25,45.263-11.736c10.894,1.675,20.673,8.382,29.754,13.97
		c9.081-5.588,18.86-12.295,29.757-13.97c16.624-2.514,30.034,7.265,45.26,11.735c28.639,8.522,58.814,12.154,88.571,9.221
		l12.993,15.646c-16.344,50.014-27.244,101.003-33.669,153.111c-6.565,51.968-8.521,105.055-7.122,159.258
		c-15.509,10.338-27.942,21.513-39.256,33.948c-16.207,17.882-29.06,43.726-48.478,57.696c-27.241,19.837-68.873,19.837-96.114,0
		c-19.418-13.97-32.271-39.814-48.474-57.696c-11.318-12.435-23.75-23.61-39.256-33.948c1.395-54.203-0.561-107.291-7.126-159.258
		c-6.428-52.109-17.325-103.098-33.669-153.111L436.411,413.361z"/>
	<path fill="#111111" d="M464.213,741.377c15.506,10.338,27.938,21.513,39.256,33.948c16.204,17.882,29.056,43.726,48.474,57.696
		c27.241,19.837,68.873,19.837,96.114,0c19.418-13.97,32.271-39.814,48.478-57.696c11.314-12.435,23.747-23.61,39.256-33.948
		c-1.398-54.203,0.557-107.291,7.122-159.258c6.425-52.109,17.325-103.098,33.669-153.111l-12.993-15.646
		c-29.757,2.933-59.932-0.698-88.571-9.221c-15.226-4.47-28.636-14.249-45.26-11.735c-10.897,1.675-20.676,8.382-29.757,13.97
		c-9.081-5.588-18.86-12.295-29.754-13.97c-16.628-2.514-30.038,7.265-45.263,11.736c-28.639,8.521-58.814,12.152-88.571,9.219
		l-12.993,15.646c16.344,50.014,27.241,101.003,33.669,153.111C463.652,634.086,465.608,687.174,464.213,741.377z M442.696,428.03
		c29.06,1.954,58.397-2.096,86.335-10.34c12.015-3.493,26.824-13.132,39.116-11.175C579.604,408.191,590.919,417.411,600,423
		c9.081-5.589,20.396-14.809,31.853-16.485c12.292-1.957,27.101,7.682,39.116,11.175c27.942,8.244,57.275,12.294,86.332,10.338
		l3.354,4.053c-15.226,48.335-25.565,98.069-31.85,148.361c-6.425,50.851-8.524,102.261-7.406,153.671
		c-12.853,9.221-24.728,19.837-35.344,31.573c-15.783,17.462-27.241,42.189-46.241,55.88c-22.351,16.205-57.275,16.205-79.627,0
		c-19-13.691-30.455-38.418-46.241-55.88c-10.617-11.736-22.492-22.352-35.344-31.573c1.118-51.41-0.978-102.82-7.406-153.671
		c-6.285-50.292-16.621-100.026-31.85-148.361L442.696,428.03z"/>
	<path fill="#CFA16D" d="M626.123,239.573c-16.761,7.822-21.51,33.388-0.137,35.763c10.894,1.257,24.167-8.102,26.123-18.58
		c11.037,4.889,21.514,11.873,32.551,18.58c29.474,18.022,64.401,32.549,99.325,34.506c19.978,0.979,39.119-1.816,56.721-11.316
		l50.851,54.763c-16.207,31.013-29.757,62.864-40.935,95.554c-36.042,105.614-44.843,219.33-32.548,329.833
		c-28.082,15.366-52.81,35.344-72.367,60.77c-15.086,19.419-29.197,39.535-47.076,56.578c-13.554,12.713-36.185,31.153-55.603,32.97
		c-9.499,0.978-13.55-2.375-19.558-8.94c-8.104-8.94-18.857-3.212-14.668,7.963c5.17,13.97,22.211,19.978,35.902,18.58
		c23.89-2.235,49.315-21.792,66.08-37.718c18.72-17.742,33.248-38.419,48.895-58.674c21.096-27.243,47.079-45.682,77.394-61.469
		c-13.27-112.459-6.425-226.313,30.315-334.302c12.295-36.042,27.661-70.269,45.684-103.797l-69.013-74.88
		c-19.278,12.154-36.182,17.463-59.091,16.346c-32.551-1.817-62.031-15.508-89.97-31.015
		C677.254,251.168,643.308,231.61,626.123,239.573z"/>
	<path fill="#CFA16D" d="M362.929,788.735c30.315,15.786,56.297,34.226,77.394,61.469c15.646,20.255,30.175,40.932,48.895,58.674
		c16.764,15.926,42.19,35.483,66.08,37.718c13.69,1.398,30.595-4.61,35.902-18.58c4.192-11.175-6.565-16.903-14.668-7.963
		c-6.008,6.566-10.059,9.918-19.558,8.94c-19.421-1.816-42.049-20.256-55.6-32.97c-17.882-17.043-31.993-37.159-47.079-56.578
		c-19.558-25.425-44.286-45.404-72.364-60.77c12.292-110.503,3.491-224.219-32.551-329.833
		c-11.177-32.69-24.728-64.541-40.935-95.554l50.851-54.763c17.602,9.499,36.743,12.295,56.718,11.316
		c34.927-1.957,69.854-16.484,99.328-34.506c11.037-6.707,21.517-13.691,32.551-18.58c1.956,10.478,15.229,19.837,26.126,18.58
		c21.374-2.375,16.621-27.941-0.14-35.763c-17.185-7.963-51.131,11.595-68.873,21.513c-27.942,15.507-57.415,29.198-89.966,31.015
		c-22.912,1.117-39.817-4.191-59.094-16.346l-69.013,74.88c17.882,33.528,33.392,67.755,45.684,103.797
		C369.357,562.421,376.199,676.276,362.929,788.735z"/>
	<path fill="#111111" d="M606.288,315.849c0-5.028-1.675-9.079-6.985-9.079h-8.941v18.3h8.941
		C603.631,325.07,606.288,321.996,606.288,315.849z M601.118,315.849c0,1.537,0.14,4.052-1.816,4.052h-3.775v-7.964h3.775
		C601.398,311.937,601.118,314.033,601.118,315.849z"/>
	<path fill="#111111" d="M595.528,340.437H600c15.226,0,20.953-10.619,20.953-24.588c0-12.992-5.864-24.726-20.392-24.726h-25.008
		v71.526h19.975V340.437z M590.361,357.48h-9.779v-61.329h19.978c9.218,0,15.226,6.426,15.226,19.698
		c0,11.177-3.491,19.559-15.786,19.559h-9.639V357.48z"/>
	<path fill="#FFFFFF" d="M478.601,734.112c12.853,9.221,24.728,19.837,35.344,31.573c15.786,17.462,27.241,42.189,46.241,55.88
		c22.351,16.205,57.275,16.205,79.627,0c19-13.691,30.458-38.418,46.241-55.88c10.617-11.736,22.492-22.352,35.344-31.573
		c-1.118-51.41,0.981-102.82,7.406-153.671c6.285-50.292,16.624-100.026,31.85-148.361l-3.354-4.053
		c-29.057,1.956-58.39-2.094-86.332-10.338c-12.015-3.493-26.824-13.132-39.116-11.175C620.396,408.191,609.081,417.411,600,423
		c-9.081-5.589-20.396-14.809-31.853-16.485c-12.292-1.957-27.101,7.682-39.116,11.175c-27.938,8.244-57.275,12.294-86.335,10.34
		l-3.351,4.051c15.229,48.335,25.565,98.069,31.85,148.361C477.623,631.292,479.719,682.702,478.601,734.112z M645.263,573.317
		h64.821v77.673c0,13.41-14.531,24.448-32.411,24.448c-17.882,0-32.411-11.038-32.411-24.448V573.317z M567.729,448.147h64.541
		v77.811c0,13.552-14.528,24.448-32.271,24.448s-32.271-10.896-32.271-24.448V448.147z M567.729,573.317h64.541v77.673
		c0,13.41-14.528,24.448-32.271,24.448s-32.271-11.038-32.271-24.448V573.317z M567.729,698.349h64.541v77.813
		c0,13.412-14.528,24.309-32.271,24.309s-32.271-10.897-32.271-24.309V698.349z M489.915,573.317h64.821v77.673
		c0,13.41-14.528,24.448-32.411,24.448c-17.879,0-32.411-11.038-32.411-24.448V573.317z"/>
	<path fill="#214A71" d="M600,675.439c17.742,0,32.271-11.038,32.271-24.448v-77.673h-64.541v77.673
		C567.729,664.401,582.258,675.439,600,675.439z M618.58,583.934c3.354,0,6.008,2.794,6.008,6.147s-2.653,6.007-6.008,6.007
		s-6.148-2.654-6.148-6.007S615.226,583.934,618.58,583.934z M618.58,644.005c3.354,0,6.008,2.794,6.008,6.146
		c0,3.353-2.653,6.008-6.008,6.008s-6.148-2.654-6.148-6.008C612.432,646.8,615.226,644.005,618.58,644.005z M600,614.11
		c3.354,0,6.008,2.653,6.008,6.007c0,3.353-2.653,6.145-6.008,6.145c-3.214,0-6.008-2.793-6.008-6.145
		C593.992,616.763,596.786,614.11,600,614.11z M581.56,583.934c3.214,0,6.008,2.794,6.008,6.147s-2.794,6.007-6.008,6.007
		c-3.354,0-6.148-2.654-6.148-6.007S578.206,583.934,581.56,583.934z M581.56,644.005c3.214,0,6.008,2.794,6.008,6.146
		c0,3.353-2.794,6.008-6.008,6.008c-3.354,0-6.148-2.654-6.148-6.008C575.412,646.8,578.206,644.005,581.56,644.005z"/>
	<path fill="#FFFFFF" d="M600,626.262c3.354,0,6.008-2.793,6.008-6.145c0-3.354-2.653-6.007-6.008-6.007
		c-3.214,0-6.008,2.653-6.008,6.007C593.992,623.469,596.786,626.262,600,626.262z"/>
	<path fill="#FFFFFF" d="M581.56,596.088c3.214,0,6.008-2.654,6.008-6.007s-2.794-6.147-6.008-6.147
		c-3.354,0-6.148,2.794-6.148,6.147S578.206,596.088,581.56,596.088z"/>
	<path fill="#FFFFFF" d="M581.56,656.159c3.214,0,6.008-2.654,6.008-6.008c0-3.352-2.794-6.146-6.008-6.146
		c-3.354,0-6.148,2.794-6.148,6.146C575.412,653.505,578.206,656.159,581.56,656.159z"/>
	<path fill="#FFFFFF" d="M618.58,596.088c3.354,0,6.008-2.654,6.008-6.007s-2.653-6.147-6.008-6.147s-6.148,2.794-6.148,6.147
		S615.226,596.088,618.58,596.088z"/>
	<path fill="#FFFFFF" d="M618.58,656.159c3.354,0,6.008-2.654,6.008-6.008c0-3.352-2.653-6.146-6.008-6.146
		s-6.148,2.794-6.148,6.146C612.432,653.505,615.226,656.159,618.58,656.159z"/>
	<path fill="#214A71" d="M600,800.47c17.742,0,32.271-10.897,32.271-24.309v-77.813h-64.541v77.813
		C567.729,789.573,582.258,800.47,600,800.47z M618.58,708.966c3.354,0,6.008,2.654,6.008,6.008c0,3.351-2.653,6.145-6.008,6.145
		s-6.148-2.794-6.148-6.145C612.432,711.62,615.226,708.966,618.58,708.966z M618.58,769.177c3.354,0,6.008,2.794,6.008,6.147
		c0,3.353-2.653,6.007-6.008,6.007s-6.148-2.654-6.148-6.007C612.432,771.972,615.226,769.177,618.58,769.177z M600,739.281
		c3.354,0,6.008,2.655,6.008,6.008s-2.653,6.148-6.008,6.148c-3.214,0-6.008-2.795-6.008-6.148S596.786,739.281,600,739.281z
		 M581.56,708.966c3.214,0,6.008,2.654,6.008,6.008c0,3.351-2.794,6.145-6.008,6.145c-3.354,0-6.148-2.794-6.148-6.145
		C575.412,711.62,578.206,708.966,581.56,708.966z M581.56,769.177c3.214,0,6.008,2.794,6.008,6.147
		c0,3.353-2.794,6.007-6.008,6.007c-3.354,0-6.148-2.654-6.148-6.007C575.412,771.972,578.206,769.177,581.56,769.177z"/>
	<path fill="#FFFFFF" d="M600,751.436c3.354,0,6.008-2.795,6.008-6.148s-2.653-6.008-6.008-6.008c-3.214,0-6.008,2.655-6.008,6.008
		S596.786,751.436,600,751.436z"/>
	<path fill="#FFFFFF" d="M581.56,721.12c3.214,0,6.008-2.794,6.008-6.145c0-3.354-2.794-6.008-6.008-6.008
		c-3.354,0-6.148,2.654-6.148,6.008C575.412,718.325,578.206,721.12,581.56,721.12z"/>
	<path fill="#FFFFFF" d="M581.56,781.331c3.214,0,6.008-2.654,6.008-6.007c0-3.353-2.794-6.147-6.008-6.147
		c-3.354,0-6.148,2.794-6.148,6.147C575.412,778.677,578.206,781.331,581.56,781.331z"/>
	<path fill="#FFFFFF" d="M618.58,721.12c3.354,0,6.008-2.794,6.008-6.145c0-3.354-2.653-6.008-6.008-6.008s-6.148,2.654-6.148,6.008
		C612.432,718.325,615.226,721.12,618.58,721.12z"/>
	<path fill="#FFFFFF" d="M618.58,781.331c3.354,0,6.008-2.654,6.008-6.007c0-3.353-2.653-6.147-6.008-6.147
		s-6.148,2.794-6.148,6.147C612.432,778.677,615.226,781.331,618.58,781.331z"/>
	<path fill="#214A71" d="M522.326,675.439c17.882,0,32.411-11.038,32.411-24.448v-77.673h-64.821v77.673
		C489.915,664.401,504.447,675.439,522.326,675.439z M540.629,583.934c3.351,0,6.144,2.794,6.144,6.147s-2.794,6.007-6.144,6.007
		c-3.354,0-6.148-2.654-6.148-6.007S537.275,583.934,540.629,583.934z M540.629,644.005c3.351,0,6.144,2.794,6.144,6.146
		c0,3.353-2.794,6.008-6.144,6.008c-3.354,0-6.148-2.654-6.148-6.008C534.481,646.8,537.275,644.005,540.629,644.005z
		 M522.049,614.11c3.351,0,6.144,2.653,6.144,6.007c0,3.353-2.794,6.145-6.144,6.145c-3.354,0-6.148-2.793-6.148-6.145
		C515.901,616.763,518.695,614.11,522.049,614.11z M503.469,583.934c3.351,0,6.144,2.794,6.144,6.147s-2.794,6.007-6.144,6.007
		c-3.354,0-6.148-2.654-6.148-6.007S500.115,583.934,503.469,583.934z M503.469,644.005c3.351,0,6.144,2.794,6.144,6.146
		c0,3.353-2.794,6.008-6.144,6.008c-3.354,0-6.148-2.654-6.148-6.008C497.321,646.8,500.115,644.005,503.469,644.005z"/>
	<path fill="#FFFFFF" d="M522.049,626.262c3.351,0,6.144-2.793,6.144-6.145c0-3.354-2.794-6.007-6.144-6.007
		c-3.354,0-6.148,2.653-6.148,6.007C515.901,623.469,518.695,626.262,522.049,626.262z"/>
	<path fill="#FFFFFF" d="M503.469,596.088c3.351,0,6.144-2.654,6.144-6.007s-2.794-6.147-6.144-6.147
		c-3.354,0-6.148,2.794-6.148,6.147S500.115,596.088,503.469,596.088z"/>
	<path fill="#FFFFFF" d="M503.469,656.159c3.351,0,6.144-2.654,6.144-6.008c0-3.352-2.794-6.146-6.144-6.146
		c-3.354,0-6.148,2.794-6.148,6.146C497.321,653.505,500.115,656.159,503.469,656.159z"/>
	<path fill="#FFFFFF" d="M540.629,596.088c3.351,0,6.144-2.654,6.144-6.007s-2.794-6.147-6.144-6.147
		c-3.354,0-6.148,2.794-6.148,6.147S537.275,596.088,540.629,596.088z"/>
	<path fill="#FFFFFF" d="M540.629,656.159c3.351,0,6.144-2.654,6.144-6.008c0-3.352-2.794-6.146-6.144-6.146
		c-3.354,0-6.148,2.794-6.148,6.146C534.481,653.505,537.275,656.159,540.629,656.159z"/>
	<path fill="#214A71" d="M677.674,675.439c17.879,0,32.411-11.038,32.411-24.448v-77.673h-64.821v77.673
		C645.263,664.401,659.792,675.439,677.674,675.439z M696.535,583.934c3.351,0,6.144,2.794,6.144,6.147s-2.794,6.007-6.144,6.007
		c-3.354,0-6.151-2.654-6.151-6.007S693.18,583.934,696.535,583.934z M696.535,644.005c3.351,0,6.144,2.794,6.144,6.146
		c0,3.353-2.794,6.008-6.144,6.008c-3.354,0-6.151-2.654-6.151-6.008C690.384,646.8,693.18,644.005,696.535,644.005z
		 M677.951,614.11c3.354,0,6.148,2.653,6.148,6.007c0,3.353-2.794,6.145-6.148,6.145c-3.351,0-6.144-2.793-6.144-6.145
		C671.807,616.763,674.6,614.11,677.951,614.11z M659.375,583.934c3.351,0,6.144,2.794,6.144,6.147s-2.794,6.007-6.144,6.007
		c-3.354,0-6.148-2.654-6.148-6.007S656.02,583.934,659.375,583.934z M659.375,644.005c3.351,0,6.144,2.794,6.144,6.146
		c0,3.353-2.794,6.008-6.144,6.008c-3.354,0-6.148-2.654-6.148-6.008C653.227,646.8,656.02,644.005,659.375,644.005z"/>
	<path fill="#FFFFFF" d="M677.951,626.262c3.354,0,6.148-2.793,6.148-6.145c0-3.354-2.794-6.007-6.148-6.007
		c-3.351,0-6.144,2.653-6.144,6.007C671.807,623.469,674.6,626.262,677.951,626.262z"/>
	<path fill="#FFFFFF" d="M696.535,596.088c3.351,0,6.144-2.654,6.144-6.007s-2.794-6.147-6.144-6.147
		c-3.354,0-6.151,2.794-6.151,6.147S693.18,596.088,696.535,596.088z"/>
	<path fill="#FFFFFF" d="M696.535,656.159c3.351,0,6.144-2.654,6.144-6.008c0-3.352-2.794-6.146-6.144-6.146
		c-3.354,0-6.151,2.794-6.151,6.146C690.384,653.505,693.18,656.159,696.535,656.159z"/>
	<path fill="#FFFFFF" d="M659.375,596.088c3.351,0,6.144-2.654,6.144-6.007s-2.794-6.147-6.144-6.147
		c-3.354,0-6.148,2.794-6.148,6.147S656.02,596.088,659.375,596.088z"/>
	<path fill="#FFFFFF" d="M659.375,656.159c3.351,0,6.144-2.654,6.144-6.008c0-3.352-2.794-6.146-6.144-6.146
		c-3.354,0-6.148,2.794-6.148,6.146C653.227,653.505,656.02,656.159,659.375,656.159z"/>
	<path fill="#CFA16D" d="M615.786,315.849c0-13.272-6.008-19.698-15.226-19.698h-19.978v61.329h9.779v-22.073H600
		C612.295,335.408,615.786,327.025,615.786,315.849z M590.361,325.07v-18.3h8.941c5.31,0,6.985,4.051,6.985,9.079
		c0,6.147-2.657,9.221-6.985,9.221H590.361z"/>
	<path fill="#111111" d="M616.905,362.649h19.698v-22.491h-19.698V362.649z M622.074,345.326h9.499v12.154h-9.499V345.326z"/>
	<rect x="622.074" y="345.326" fill="#CFA16D" width="9.499" height="12.154"/>
	<path fill="#111111" d="M680.187,371.171l18.723,4.189l4.886-22.071l-18.72-4.191L680.187,371.171z M688.988,355.245l8.801,1.955
		l-2.794,12.015l-8.661-1.957L688.988,355.245z"/>
	<polygon fill="#CFA16D" points="697.789,357.2 688.988,355.245 686.335,367.259 694.996,369.215 	"/>
	<path fill="#111111" d="M669.15,342.393l18.72,4.191l4.612-20.537l-18.72-4.191l0.838-3.772l21.374,4.891l4.612-20.537
		l-40.237-9.079l-15.783,69.709l18.997,4.331L669.15,342.393z M650.71,359.296l13.413-59.792l30.315,6.845l-2.236,10.477
		l-21.374-4.889l-3.214,13.831l18.72,4.193l-2.373,10.477l-18.583-4.193l-5.727,25.007L650.71,359.296z"/>
	<polygon fill="#CFA16D" points="683.962,340.437 686.335,329.96 667.615,325.767 670.829,311.937 692.202,316.826 694.439,306.35 
		664.124,299.504 650.71,359.296 659.652,361.252 665.379,336.245 	"/>
	<path fill="#111111" d="M547.194,363.487l18.86-3.772l-0.978-5.029l-3.354-17.044l-18.857,3.772L547.194,363.487z M557.67,343.65
		l2.376,12.155l-8.804,1.675l-2.373-12.015L557.67,343.65z"/>
	<polygon fill="#CFA16D" points="560.046,355.805 557.67,343.65 548.869,345.465 551.242,357.48 	"/>
	<path fill="#111111" d="M531.13,368.097l-5.871-25.006l18.72-4.331l-4.749-20.536l-18.58,4.33l-0.978-3.771l21.514-4.89
		l-4.89-20.396l-40.094,9.221l15.923,69.571L531.13,368.097z M532.525,299.644l2.373,10.477l-21.374,4.891l3.214,13.691l18.72-4.331
		l2.373,10.477l-18.58,4.331l5.73,25.006l-8.941,2.096l-13.694-59.792L532.525,299.644z"/>
	<polygon fill="#CFA16D" points="524.982,364.185 519.252,339.179 537.832,334.848 535.459,324.371 516.739,328.703 
		513.525,315.012 534.898,310.121 532.525,299.644 502.347,306.49 516.041,366.281 	"/>
	<path fill="#214A71" d="M600,550.406c17.742,0,32.271-10.896,32.271-24.448v-77.811h-64.541v77.811
		C567.729,539.51,582.258,550.406,600,550.406z M618.58,458.762c3.354,0,6.008,2.795,6.008,6.148c0,3.353-2.653,6.007-6.008,6.007
		s-6.148-2.654-6.148-6.007C612.432,461.557,615.226,458.762,618.58,458.762z M618.58,518.973c3.354,0,6.008,2.795,6.008,6.148
		c0,3.353-2.653,6.007-6.008,6.007s-6.148-2.654-6.148-6.007C612.432,521.768,615.226,518.973,618.58,518.973z M600,489.077
		c3.354,0,6.008,2.795,6.008,6.148s-2.653,6.008-6.008,6.008c-3.214,0-6.008-2.655-6.008-6.008S596.786,489.077,600,489.077z
		 M581.56,458.762c3.214,0,6.008,2.795,6.008,6.148c0,3.353-2.794,6.007-6.008,6.007c-3.354,0-6.148-2.654-6.148-6.007
		C575.412,461.557,578.206,458.762,581.56,458.762z M581.56,518.973c3.214,0,6.008,2.795,6.008,6.148
		c0,3.353-2.794,6.007-6.008,6.007c-3.354,0-6.148-2.654-6.148-6.007C575.412,521.768,578.206,518.973,581.56,518.973z"/>
	<path fill="#FFFFFF" d="M600,501.232c3.354,0,6.008-2.655,6.008-6.008s-2.653-6.148-6.008-6.148c-3.214,0-6.008,2.795-6.008,6.148
		S596.786,501.232,600,501.232z"/>
	<path fill="#FFFFFF" d="M581.56,470.916c3.214,0,6.008-2.654,6.008-6.007c0-3.353-2.794-6.148-6.008-6.148
		c-3.354,0-6.148,2.795-6.148,6.148C575.412,468.262,578.206,470.916,581.56,470.916z"/>
	<path fill="#FFFFFF" d="M581.56,531.128c3.214,0,6.008-2.654,6.008-6.007c0-3.353-2.794-6.148-6.008-6.148
		c-3.354,0-6.148,2.795-6.148,6.148C575.412,528.474,578.206,531.128,581.56,531.128z"/>
	<path fill="#FFFFFF" d="M618.58,470.916c3.354,0,6.008-2.654,6.008-6.007c0-3.353-2.653-6.148-6.008-6.148
		s-6.148,2.795-6.148,6.148C612.432,468.262,615.226,470.916,618.58,470.916z"/>
	<path fill="#FFFFFF" d="M618.58,531.128c3.354,0,6.008-2.654,6.008-6.007c0-3.353-2.653-6.148-6.008-6.148
		s-6.148,2.795-6.148,6.148C612.432,528.474,615.226,531.128,618.58,531.128z"/>
</g>
</svg>
