<?xml version="1.0" encoding="UTF-8"?>
<!DOCTYPE svg PUBLIC "-//W3C//DTD SVG 1.1//EN" "http://www.w3.org/Graphics/SVG/1.1/DTD/svg11.dtd">
<svg xmlns="http://www.w3.org/2000/svg" version="1.1" width="800px" height="450px" style="shape-rendering:geometricPrecision; text-rendering:geometricPrecision; image-rendering:optimizeQuality; fill-rule:evenodd; clip-rule:evenodd" xmlns:xlink="http://www.w3.org/1999/xlink">
<g><path style="opacity:0.078" fill="#f39289" d="M 303.5,23.5 C 304.429,24.3149 305.429,25.1482 306.5,26C 304.19,26.4966 301.857,26.6633 299.5,26.5C 299.5,25.5 299.5,24.5 299.5,23.5C 300.833,23.5 302.167,23.5 303.5,23.5 Z"/></g>
<g><path style="opacity:0.995" fill="#e42718" d="M 303.5,23.5 C 367.5,23.5 431.5,23.5 495.5,23.5C 494.571,24.3149 493.571,25.1482 492.5,26C 494.81,26.4966 497.143,26.6633 499.5,26.5C 501.831,25.0048 503.831,25.3382 505.5,27.5C 507.515,28.9238 509.848,29.5905 512.5,29.5C 512.47,30.4972 512.97,31.1639 514,31.5C 521.669,34.7947 529.169,38.4614 536.5,42.5C 537.107,42.3764 537.44,42.0431 537.5,41.5C 538.167,41.5 538.5,41.8333 538.5,42.5C 538.511,44.0174 539.177,45.1841 540.5,46C 543.529,48.1761 546.529,50.3427 549.5,52.5C 552.5,54.8333 555.167,57.5 557.5,60.5C 565.305,70.7775 570.972,82.1109 574.5,94.5C 574.5,181.167 574.5,267.833 574.5,354.5C 573.883,354.611 573.383,354.944 573,355.5C 572.313,359.58 571.313,363.58 570,367.5C 566.476,373.888 562.976,380.221 559.5,386.5C 556.5,390.167 553.167,393.5 549.5,396.5C 546.938,399.223 543.938,401.389 540.5,403C 539.177,403.816 538.511,404.983 538.5,406.5C 537.713,408.104 536.38,408.771 534.5,408.5C 531.995,408.98 529.662,409.98 527.5,411.5C 526.702,411.957 526.369,412.624 526.5,413.5C 523.912,415.625 520.912,416.958 517.5,417.5C 513.216,418.261 509.216,419.595 505.5,421.5C 505.167,421.5 504.833,421.5 504.5,421.5C 502.973,421.427 501.973,422.094 501.5,423.5C 500.833,423.167 500.167,422.833 499.5,422.5C 497.143,422.337 494.81,422.503 492.5,423C 493.571,423.852 494.571,424.685 495.5,425.5C 431.5,425.5 367.5,425.5 303.5,425.5C 304.429,424.685 305.429,423.852 306.5,423C 304.19,422.503 301.857,422.337 299.5,422.5C 296.979,423.75 294.646,423.417 292.5,421.5C 289.916,419.528 286.916,418.528 283.5,418.5C 282.883,418.611 282.383,418.944 282,419.5C 274.938,415.687 267.772,411.354 260.5,406.5C 260.489,404.983 259.823,403.816 258.5,403C 255.379,401.694 252.713,399.86 250.5,397.5C 246.833,394.5 243.5,391.167 240.5,387.5C 236.437,381.051 232.604,374.385 229,367.5C 227.687,363.58 226.687,359.58 226,355.5C 225.617,354.944 225.117,354.611 224.5,354.5C 224.169,265.763 224.503,177.096 225.5,88.5C 229.761,78.6556 235.094,69.3223 241.5,60.5C 241.833,59.5 242.5,58.8333 243.5,58.5C 247.935,55.9003 251.602,52.4003 254.5,48C 260.501,43.6641 266.834,39.8308 273.5,36.5C 274.298,36.0431 274.631,35.3764 274.5,34.5C 278.36,34.6743 281.36,33.3409 283.5,30.5C 286.916,30.4725 289.916,29.4725 292.5,27.5C 294.646,25.5829 296.979,25.2496 299.5,26.5C 301.857,26.6633 304.19,26.4966 306.5,26C 305.429,25.1482 304.429,24.3149 303.5,23.5 Z"/></g>
<g><path style="opacity:0.078" fill="#f3928a" d="M 495.5,23.5 C 496.833,23.5 498.167,23.5 499.5,23.5C 499.5,24.5 499.5,25.5 499.5,26.5C 497.143,26.6633 494.81,26.4966 492.5,26C 493.571,25.1482 494.571,24.3149 495.5,23.5 Z"/></g>
<g><path style="opacity:0.18" fill="#f6a099" d="M 512.5,29.5 C 509.848,29.5905 507.515,28.9238 505.5,27.5C 506.15,27.1961 506.817,26.8627 507.5,26.5C 509.145,27.6963 510.811,28.6963 512.5,29.5 Z"/></g>
<g><path style="opacity:0.996" fill="#f69e96" d="M 292.5,27.5 C 289.916,29.4725 286.916,30.4725 283.5,30.5C 286.185,29.3715 288.852,28.0382 291.5,26.5C 292.107,26.6236 292.44,26.9569 292.5,27.5 Z"/></g>
<g><path style="opacity:1" fill="#f37f71" d="M 283.5,30.5 C 281.36,33.3409 278.36,34.6743 274.5,34.5C 277.088,32.4082 280.088,31.0749 283.5,30.5 Z"/></g>
<g><path style="opacity:1" fill="#f48173" d="M 512.5,29.5 C 521.563,32.1998 529.896,36.1998 537.5,41.5C 537.44,42.0431 537.107,42.3764 536.5,42.5C 529.169,38.4614 521.669,34.7947 514,31.5C 512.97,31.1639 512.47,30.4972 512.5,29.5 Z"/></g>
<g><path style="opacity:0.996" fill="#f4877b" d="M 274.5,34.5 C 274.631,35.3764 274.298,36.0431 273.5,36.5C 266.834,39.8308 260.501,43.6641 254.5,48C 251.602,52.4003 247.935,55.9003 243.5,58.5C 251.494,47.5095 261.827,39.5095 274.5,34.5 Z"/></g>
<g><path style="opacity:1" fill="#fbe304" d="M 401.5,58.5 C 401.5,60.5 401.5,62.5 401.5,64.5C 403.265,65.4614 405.265,65.7947 407.5,65.5C 407.567,66.9587 407.234,68.2921 406.5,69.5C 401.833,69.5 397.167,69.5 392.5,69.5C 391.566,68.4324 391.232,67.099 391.5,65.5C 393.5,65.5 395.5,65.5 397.5,65.5C 397.5,63.8333 397.5,62.1667 397.5,60.5C 397.5,60.1667 397.5,59.8333 397.5,59.5C 397.5,56.5 397.5,53.5 397.5,50.5C 395.5,50.5 393.5,50.5 391.5,50.5C 391.5,48.8333 391.5,47.1667 391.5,45.5C 393.5,45.5 395.5,45.5 397.5,45.5C 397.5,43.8333 397.5,42.1667 397.5,40.5C 398.833,40.5 400.167,40.5 401.5,40.5C 401.5,42.1667 401.5,43.8333 401.5,45.5C 403.5,45.5 405.5,45.5 407.5,45.5C 407.5,47.1667 407.5,48.8333 407.5,50.5C 405.5,50.5 403.5,50.5 401.5,50.5C 401.5,53.1667 401.5,55.8333 401.5,58.5 Z"/></g>
<g><path style="opacity:0.686" fill="#f7aaa3" d="M 538.5,42.5 C 543.441,44.4416 547.108,47.7749 549.5,52.5C 546.529,50.3427 543.529,48.1761 540.5,46C 539.177,45.1841 538.511,44.0174 538.5,42.5 Z"/></g>
<g><path style="opacity:1" fill="#931355" d="M 397.5,59.5 C 397.5,59.8333 397.5,60.1667 397.5,60.5C 396.566,61.5676 396.232,62.901 396.5,64.5C 390.897,65.1103 390.23,63.2769 394.5,59C 395.577,58.5304 396.577,58.6971 397.5,59.5 Z"/></g>
<g><path style="opacity:1" fill="#931355" d="M 401.5,58.5 C 404.669,58.6617 406.669,60.3284 407.5,63.5C 405.604,64.4656 403.604,64.7989 401.5,64.5C 401.5,62.5 401.5,60.5 401.5,58.5 Z"/></g>
<g><path style="opacity:1" fill="#900f58" d="M 392.5,69.5 C 397.167,69.5 401.833,69.5 406.5,69.5C 405.742,72.8968 403.575,74.2301 400,73.5C 396.294,74.0689 393.794,72.7356 392.5,69.5 Z"/></g>
<g><path style="opacity:1" fill="#feebe4" d="M 455.5,83.5 C 456.11,84.391 456.443,85.391 456.5,86.5C 456.196,87.1499 455.863,87.8165 455.5,88.5C 458.1,91.041 458.1,93.541 455.5,96C 458.192,98.6324 457.859,100.966 454.5,103C 455.517,104.049 455.684,105.216 455,106.5C 452.674,107.813 451.341,109.813 451,112.5C 449.989,113.337 448.822,113.67 447.5,113.5C 446.12,113.038 445.453,112.038 445.5,110.5C 447.57,107.364 449.404,104.031 451,100.5C 452.903,92.2125 451.069,85.0459 445.5,79C 442.238,77.5708 439.071,76.0708 436,74.5C 429.849,74.5365 423.682,74.5365 417.5,74.5C 414.443,76.141 411.277,77.4743 408,78.5C 406.092,78.2849 404.926,77.2849 404.5,75.5C 405.638,72.7325 407.472,72.0659 410,73.5C 411.545,70.7067 413.712,70.04 416.5,71.5C 417.27,69.7282 418.603,68.7282 420.5,68.5C 424.833,68.5 429.167,68.5 433.5,68.5C 438.185,70.1068 442.852,71.6068 447.5,73C 448.38,74.3561 448.714,75.8561 448.5,77.5C 449.873,77.3433 451.207,77.51 452.5,78C 452.989,80.2092 453.989,82.0425 455.5,83.5 Z"/></g>
<g><path style="opacity:0.043" fill="#f5a59f" d="M 557.5,60.5 C 567.336,69.6295 573.003,80.9629 574.5,94.5C 570.972,82.1109 565.305,70.7775 557.5,60.5 Z"/></g>
<g><path style="opacity:0.996" fill="#f5a19a" d="M 241.5,60.5 C 235.094,69.3223 229.761,78.6556 225.5,88.5C 227.761,77.2989 233.095,67.9656 241.5,60.5 Z"/></g>
<g><path style="opacity:1" fill="#fee711" d="M 394.5,75.5 C 397.833,74.1667 401.167,74.1667 404.5,75.5C 404.926,77.2849 406.092,78.2849 408,78.5C 411.277,77.4743 414.443,76.141 417.5,74.5C 423.682,74.5365 429.849,74.5365 436,74.5C 439.071,76.0708 442.238,77.5708 445.5,79C 451.069,85.0459 452.903,92.2125 451,100.5C 449.404,104.031 447.57,107.364 445.5,110.5C 445.453,112.038 446.12,113.038 447.5,113.5C 449.312,115.461 450.312,117.794 450.5,120.5C 451.675,120.281 452.675,120.614 453.5,121.5C 452.627,123.413 451.627,125.247 450.5,127C 452.473,127.495 454.473,127.662 456.5,127.5C 457.677,130.038 459.344,132.371 461.5,134.5C 459.796,136.849 457.463,137.849 454.5,137.5C 454.719,138.675 454.386,139.675 453.5,140.5C 451.056,139.552 449.056,138.052 447.5,136C 450.604,131.813 449.604,128.98 444.5,127.5C 442.971,127.529 441.804,128.196 441,129.5C 440.808,131.577 440.308,133.577 439.5,135.5C 436.23,137.161 432.897,137.494 429.5,136.5C 429.709,135.914 430.043,135.414 430.5,135C 423.304,130.235 423.97,127.401 432.5,126.5C 432.5,125.5 432.5,124.5 432.5,123.5C 435.126,124.422 437.793,125.422 440.5,126.5C 440.833,126.167 441.167,125.833 441.5,125.5C 439.914,123.827 439.247,121.827 439.5,119.5C 441.973,119.264 443.64,117.931 444.5,115.5C 443.167,113.5 441.833,111.5 440.5,109.5C 448.031,103.401 450.198,95.7341 447,86.5C 445.848,84.3513 444.348,82.518 442.5,81C 430.906,75.9937 419.572,76.4937 408.5,82.5C 407.336,90.7159 407.67,98.8826 409.5,107C 407.359,112.007 405.692,117.174 404.5,122.5C 407.044,122.949 409.71,122.949 412.5,122.5C 412.5,123.5 412.5,124.5 412.5,125.5C 421.102,127.35 421.436,129.684 413.5,132.5C 413.5,133.833 413.5,135.167 413.5,136.5C 409.895,136.201 406.561,135.035 403.5,133C 403.374,131.026 403.208,128.859 403,126.5C 400.667,123.833 398.333,123.833 396,126.5C 395.792,128.859 395.626,131.026 395.5,133C 392.626,134.919 389.626,135.419 386.5,134.5C 384.206,132.678 381.872,130.844 379.5,129C 382.166,126.855 384.166,124.355 385.5,121.5C 388.85,121.506 391.85,122.506 394.5,124.5C 394.833,124.167 395.167,123.833 395.5,123.5C 393.562,117.973 391.562,112.473 389.5,107C 391.408,98.8895 391.741,90.7229 390.5,82.5C 379.382,76.6204 368.049,76.1204 356.5,81C 351.148,86.578 349.648,93.078 352,100.5C 353.791,103.952 355.958,107.118 358.5,110C 357.375,111.963 356.041,113.796 354.5,115.5C 355.36,117.931 357.027,119.264 359.5,119.5C 359.149,121.869 358.982,124.203 359,126.5C 360.995,124.253 363.495,123.253 366.5,123.5C 366.5,124.5 366.5,125.5 366.5,126.5C 375.045,127.536 375.712,130.37 368.5,135C 368.957,135.414 369.291,135.914 369.5,136.5C 362.651,138.834 358.818,136.501 358,129.5C 354.844,126.601 352.178,126.935 350,130.5C 349.471,132.585 349.971,134.418 351.5,136C 349.944,138.052 347.944,139.552 345.5,140.5C 343.96,138.563 341.96,137.396 339.5,137C 337.475,135.806 337.141,134.306 338.5,132.5C 340.167,131.5 341.5,130.167 342.5,128.5C 344.5,127.833 346.5,127.167 348.5,126.5C 347.248,124.999 346.248,123.332 345.5,121.5C 348.463,119.581 350.463,116.915 351.5,113.5C 352.88,113.038 353.547,112.038 353.5,110.5C 349.189,104.2 346.856,97.1999 346.5,89.5C 347.744,86.9495 349.244,84.6161 351,82.5C 351.49,81.2068 351.657,79.8734 351.5,78.5C 358.235,76.248 365.235,74.9147 372.5,74.5C 379.627,75.3673 386.627,76.7007 393.5,78.5C 393.263,77.209 393.596,76.209 394.5,75.5 Z"/></g>
<g><path style="opacity:1" fill="#feeae5" d="M 394.5,75.5 C 393.596,76.209 393.263,77.209 393.5,78.5C 386.627,76.7007 379.627,75.3673 372.5,74.5C 365.235,74.9147 358.235,76.248 351.5,78.5C 351.657,79.8734 351.49,81.2068 351,82.5C 349.244,84.6161 347.744,86.9495 346.5,89.5C 346.856,97.1999 349.189,104.2 353.5,110.5C 353.547,112.038 352.88,113.038 351.5,113.5C 350.448,113.649 349.448,113.483 348.5,113C 347.864,110.225 346.364,108.059 344,106.5C 343.316,105.216 343.483,104.049 344.5,103C 341.141,100.966 340.808,98.6324 343.5,96C 340.9,93.541 340.9,91.041 343.5,88.5C 343.137,87.8165 342.804,87.1499 342.5,86.5C 343.028,85.1526 343.195,83.8193 343,82.5C 339.306,82.5562 335.473,82.7229 331.5,83C 324.554,83.8794 318.554,86.5461 313.5,91C 312.207,91.49 310.873,91.6567 309.5,91.5C 309.649,92.552 309.483,93.552 309,94.5C 298.378,104.114 297.212,114.781 305.5,126.5C 304.965,128.261 303.965,129.594 302.5,130.5C 300.983,130.489 299.816,129.823 299,128.5C 298.755,126.337 297.755,124.67 296,123.5C 294.879,118.843 294.379,114.01 294.5,109C 294.731,104.306 296.231,99.8057 299,95.5C 300.11,93.9632 301.61,93.2965 303.5,93.5C 303.384,90.0897 305.05,88.7564 308.5,89.5C 308.351,88.448 308.517,87.448 309,86.5C 311.775,85.8639 313.941,84.3639 315.5,82C 316.784,81.3162 317.951,81.4829 319,82.5C 320.224,79.527 322.224,78.8603 325,80.5C 326.36,77.4489 328.527,76.7823 331.5,78.5C 333.833,75.8333 336.167,75.8333 338.5,78.5C 343.128,75.2605 345.295,76.5938 345,82.5C 344.734,79.0992 346.234,77.4326 349.5,77.5C 349.297,75.6096 349.963,74.1096 351.5,73C 354.252,72.7882 356.752,71.9548 359,70.5C 359.873,70.7355 360.707,71.0688 361.5,71.5C 362.631,70.2485 363.964,69.2485 365.5,68.5C 369.833,68.5 374.167,68.5 378.5,68.5C 380.94,69.8932 383.607,70.7266 386.5,71C 387.333,71.8333 388.167,72.6667 389,73.5C 391.528,72.0659 393.362,72.7325 394.5,75.5 Z"/></g>
<g><path style="opacity:1" fill="#e42d18" d="M 447.5,113.5 C 448.822,113.67 449.989,113.337 451,112.5C 451.341,109.813 452.674,107.813 455,106.5C 455.684,105.216 455.517,104.049 454.5,103C 457.859,100.966 458.192,98.6324 455.5,96C 458.1,93.541 458.1,91.041 455.5,88.5C 455.863,87.8165 456.196,87.1499 456.5,86.5C 469.911,85.2448 481.078,89.5782 490,99.5C 491.54,106.627 490.374,113.127 486.5,119C 488.114,122.507 489.28,126.007 490,129.5C 486.359,129.439 484.026,131.439 483,135.5C 481.499,133.416 479.499,132.083 477,131.5C 474.965,133.485 472.465,134.652 469.5,135C 469.043,135.414 468.709,135.914 468.5,136.5C 469.5,137.833 470.5,139.167 471.5,140.5C 470.754,141.736 470.421,143.07 470.5,144.5C 474.348,144.311 478.015,144.311 481.5,144.5C 478.066,150.217 473.066,152.717 466.5,152C 463.875,149.804 462.875,146.97 463.5,143.5C 465.484,143.516 466.484,142.516 466.5,140.5C 466.292,137.815 465.125,137.149 463,138.5C 462.506,140.134 462.34,141.801 462.5,143.5C 458.024,149.609 453.191,149.943 448,144.5C 446.97,142.412 446.137,140.245 445.5,138C 444.902,136.699 443.902,135.865 442.5,135.5C 440.298,140.376 436.631,143.376 431.5,144.5C 427.016,144.01 424.016,141.677 422.5,137.5C 425.115,135.442 424.948,133.442 422,131.5C 419.327,132.858 418.827,134.858 420.5,137.5C 417.457,143.502 412.79,145.002 406.5,142C 404.265,138.995 401.932,136.162 399.5,133.5C 397.161,135.647 395.161,138.147 393.5,141C 390.119,143.245 386.452,143.912 382.5,143C 380.536,141.549 379.203,139.716 378.5,137.5C 380.173,134.858 379.673,132.858 377,131.5C 374.052,133.442 373.885,135.442 376.5,137.5C 373.345,144.861 368.345,146.361 361.5,142C 359.47,140.104 357.803,137.937 356.5,135.5C 355.833,135.833 355.167,136.167 354.5,136.5C 353.312,141.045 350.979,144.879 347.5,148C 342.485,149.606 338.819,148.106 336.5,143.5C 336.5,141.833 336.5,140.167 336.5,138.5C 335.167,138.5 333.833,138.5 332.5,138.5C 332.077,140.781 332.744,142.448 334.5,143.5C 335.605,152.185 331.939,154.685 323.5,151C 321.316,148.984 319.316,146.817 317.5,144.5C 321.122,143.675 324.789,143.175 328.5,143C 327.978,142.439 327.645,141.772 327.5,141C 328.289,139.374 329.289,137.874 330.5,136.5C 327.304,135.071 324.304,133.405 321.5,131.5C 319.272,132.219 317.439,133.552 316,135.5C 314.974,131.439 312.641,129.439 309,129.5C 309.393,125.849 310.56,122.349 312.5,119C 304.467,104.768 308.134,94.7685 323.5,89C 329.636,86.8218 335.969,85.9885 342.5,86.5C 342.804,87.1499 343.137,87.8165 343.5,88.5C 340.9,91.041 340.9,93.541 343.5,96C 340.808,98.6324 341.141,100.966 344.5,103C 343.483,104.049 343.316,105.216 344,106.5C 346.364,108.059 347.864,110.225 348.5,113C 349.448,113.483 350.448,113.649 351.5,113.5C 350.463,116.915 348.463,119.581 345.5,121.5C 346.248,123.332 347.248,124.999 348.5,126.5C 346.5,127.167 344.5,127.833 342.5,128.5C 341.5,130.167 340.167,131.5 338.5,132.5C 337.141,134.306 337.475,135.806 339.5,137C 341.96,137.396 343.96,138.563 345.5,140.5C 347.944,139.552 349.944,138.052 351.5,136C 349.971,134.418 349.471,132.585 350,130.5C 352.178,126.935 354.844,126.601 358,129.5C 358.818,136.501 362.651,138.834 369.5,136.5C 369.291,135.914 368.957,135.414 368.5,135C 375.712,130.37 375.045,127.536 366.5,126.5C 366.5,125.5 366.5,124.5 366.5,123.5C 363.495,123.253 360.995,124.253 359,126.5C 358.982,124.203 359.149,121.869 359.5,119.5C 357.027,119.264 355.36,117.931 354.5,115.5C 356.041,113.796 357.375,111.963 358.5,110C 355.958,107.118 353.791,103.952 352,100.5C 349.648,93.078 351.148,86.578 356.5,81C 368.049,76.1204 379.382,76.6204 390.5,82.5C 391.741,90.7229 391.408,98.8895 389.5,107C 391.562,112.473 393.562,117.973 395.5,123.5C 395.167,123.833 394.833,124.167 394.5,124.5C 391.85,122.506 388.85,121.506 385.5,121.5C 384.166,124.355 382.166,126.855 379.5,129C 381.872,130.844 384.206,132.678 386.5,134.5C 389.626,135.419 392.626,134.919 395.5,133C 395.626,131.026 395.792,128.859 396,126.5C 398.333,123.833 400.667,123.833 403,126.5C 403.208,128.859 403.374,131.026 403.5,133C 406.561,135.035 409.895,136.201 413.5,136.5C 413.5,135.167 413.5,133.833 413.5,132.5C 421.436,129.684 421.102,127.35 412.5,125.5C 412.5,124.5 412.5,123.5 412.5,122.5C 409.71,122.949 407.044,122.949 404.5,122.5C 405.692,117.174 407.359,112.007 409.5,107C 407.67,98.8826 407.336,90.7159 408.5,82.5C 419.572,76.4937 430.906,75.9937 442.5,81C 444.348,82.518 445.848,84.3513 447,86.5C 450.198,95.7341 448.031,103.401 440.5,109.5C 441.833,111.5 443.167,113.5 444.5,115.5C 443.64,117.931 441.973,119.264 439.5,119.5C 439.247,121.827 439.914,123.827 441.5,125.5C 441.167,125.833 440.833,126.167 440.5,126.5C 437.793,125.422 435.126,124.422 432.5,123.5C 432.5,124.5 432.5,125.5 432.5,126.5C 423.97,127.401 423.304,130.235 430.5,135C 430.043,135.414 429.709,135.914 429.5,136.5C 432.897,137.494 436.23,137.161 439.5,135.5C 440.308,133.577 440.808,131.577 441,129.5C 441.804,128.196 442.971,127.529 444.5,127.5C 449.604,128.98 450.604,131.813 447.5,136C 449.056,138.052 451.056,139.552 453.5,140.5C 454.386,139.675 454.719,138.675 454.5,137.5C 457.463,137.849 459.796,136.849 461.5,134.5C 459.344,132.371 457.677,130.038 456.5,127.5C 454.473,127.662 452.473,127.495 450.5,127C 451.627,125.247 452.627,123.413 453.5,121.5C 452.675,120.614 451.675,120.281 450.5,120.5C 450.312,117.794 449.312,115.461 447.5,113.5 Z"/></g>
<g><path style="opacity:1" fill="#fffbe1" d="M 398.5,78.5 C 402.31,79.7542 402.31,80.7542 398.5,81.5C 398.5,80.5 398.5,79.5 398.5,78.5 Z"/></g>
<g><path style="opacity:1" fill="#feede8" d="M 496.5,129.5 C 494.748,129.582 493.748,128.749 493.5,127C 495.914,122.338 497.914,117.505 499.5,112.5C 499.196,104.887 496.029,98.8874 490,94.5C 489.517,93.552 489.351,92.552 489.5,91.5C 488.127,91.6567 486.793,91.49 485.5,91C 482.086,88.5983 478.42,86.5983 474.5,85C 473.874,84.2496 473.374,83.4162 473,82.5C 467.116,82.674 461.283,82.674 455.5,82.5C 454.248,80.6612 454.248,78.8278 455.5,77C 458.231,77.2212 460.898,77.0545 463.5,76.5C 465.055,76.722 466.389,77.3887 467.5,78.5C 470.473,76.7823 472.64,77.4489 474,80.5C 476.776,78.8603 478.776,79.527 480,82.5C 481.049,81.4829 482.216,81.3162 483.5,82C 485.059,84.3639 487.225,85.8639 490,86.5C 490.483,87.448 490.649,88.448 490.5,89.5C 493.95,88.7564 495.616,90.0897 495.5,93.5C 496.822,93.33 497.989,93.6634 499,94.5C 499.151,97.5598 500.485,99.8931 503,101.5C 503.684,102.784 503.517,103.951 502.5,105C 503.894,105.956 504.561,107.289 504.5,109C 504.748,113.706 504.248,118.206 503,122.5C 501.989,123.337 500.822,123.67 499.5,123.5C 499.5,125.5 499.5,127.5 499.5,129.5C 498.5,129.5 497.5,129.5 496.5,129.5 Z"/></g>
<g><path style="opacity:1" fill="#fde608" d="M 342.5,86.5 C 335.969,85.9885 329.636,86.8218 323.5,89C 308.134,94.7685 304.467,104.768 312.5,119C 310.56,122.349 309.393,125.849 309,129.5C 312.641,129.439 314.974,131.439 316,135.5C 317.439,133.552 319.272,132.219 321.5,131.5C 324.304,133.405 327.304,135.071 330.5,136.5C 329.289,137.874 328.289,139.374 327.5,141C 327.645,141.772 327.978,142.439 328.5,143C 324.789,143.175 321.122,143.675 317.5,144.5C 319.316,146.817 321.316,148.984 323.5,151C 331.939,154.685 335.605,152.185 334.5,143.5C 335.167,143.5 335.833,143.5 336.5,143.5C 338.819,148.106 342.485,149.606 347.5,148C 350.979,144.879 353.312,141.045 354.5,136.5C 355.167,136.167 355.833,135.833 356.5,135.5C 357.803,137.937 359.47,140.104 361.5,142C 368.345,146.361 373.345,144.861 376.5,137.5C 377.167,137.5 377.833,137.5 378.5,137.5C 379.203,139.716 380.536,141.549 382.5,143C 386.452,143.912 390.119,143.245 393.5,141C 395.161,138.147 397.161,135.647 399.5,133.5C 401.932,136.162 404.265,138.995 406.5,142C 412.79,145.002 417.457,143.502 420.5,137.5C 421.167,137.5 421.833,137.5 422.5,137.5C 424.016,141.677 427.016,144.01 431.5,144.5C 436.631,143.376 440.298,140.376 442.5,135.5C 443.902,135.865 444.902,136.699 445.5,138C 446.137,140.245 446.97,142.412 448,144.5C 453.191,149.943 458.024,149.609 462.5,143.5C 462.833,143.5 463.167,143.5 463.5,143.5C 462.875,146.97 463.875,149.804 466.5,152C 473.066,152.717 478.066,150.217 481.5,144.5C 478.015,144.311 474.348,144.311 470.5,144.5C 470.421,143.07 470.754,141.736 471.5,140.5C 470.5,139.167 469.5,137.833 468.5,136.5C 468.709,135.914 469.043,135.414 469.5,135C 472.465,134.652 474.965,133.485 477,131.5C 479.499,132.083 481.499,133.416 483,135.5C 484.026,131.439 486.359,129.439 490,129.5C 489.28,126.007 488.114,122.507 486.5,119C 490.374,113.127 491.54,106.627 490,99.5C 481.078,89.5782 469.911,85.2448 456.5,86.5C 456.443,85.391 456.11,84.391 455.5,83.5C 455.5,83.1667 455.5,82.8333 455.5,82.5C 461.283,82.674 467.116,82.674 473,82.5C 473.374,83.4162 473.874,84.2496 474.5,85C 478.42,86.5983 482.086,88.5983 485.5,91C 486.793,91.49 488.127,91.6567 489.5,91.5C 489.351,92.552 489.517,93.552 490,94.5C 496.029,98.8874 499.196,104.887 499.5,112.5C 497.914,117.505 495.914,122.338 493.5,127C 493.748,128.749 494.748,129.582 496.5,129.5C 496.539,130.583 496.873,131.583 497.5,132.5C 493.125,134.687 488.792,136.854 484.5,139C 482.845,140.444 482.178,142.278 482.5,144.5C 483.675,144.281 484.675,144.614 485.5,145.5C 481.916,152.455 476.249,156.122 468.5,156.5C 468.714,158.144 468.38,159.644 467.5,161C 464.564,163.256 461.23,164.589 457.5,165C 461.567,167.428 461.4,169.262 457,170.5C 417.909,162.866 378.743,162.533 339.5,169.5C 339.297,167.61 339.963,166.11 341.5,165C 337.77,164.589 334.436,163.256 331.5,161C 330.62,159.644 330.286,158.144 330.5,156.5C 322.297,156.47 316.63,152.637 313.5,145C 314.448,144.517 315.448,144.351 316.5,144.5C 316.822,142.278 316.155,140.444 314.5,139C 311.389,138.556 308.723,137.223 306.5,135C 304.866,134.506 303.199,134.34 301.5,134.5C 301.433,133.041 301.766,131.708 302.5,130.5C 303.965,129.594 304.965,128.261 305.5,126.5C 297.212,114.781 298.378,104.114 309,94.5C 309.483,93.552 309.649,92.552 309.5,91.5C 310.873,91.6567 312.207,91.49 313.5,91C 318.554,86.5461 324.554,83.8794 331.5,83C 335.473,82.7229 339.306,82.5562 343,82.5C 343.195,83.8193 343.028,85.1526 342.5,86.5 Z"/></g>
<g><path style="opacity:1" fill="#fde0da" d="M 422.5,137.5 C 421.833,137.5 421.167,137.5 420.5,137.5C 418.827,134.858 419.327,132.858 422,131.5C 424.948,133.442 425.115,135.442 422.5,137.5 Z"/></g>
<g><path style="opacity:1" fill="#fee0da" d="M 378.5,137.5 C 377.833,137.5 377.167,137.5 376.5,137.5C 373.885,135.442 374.052,133.442 377,131.5C 379.673,132.858 380.173,134.858 378.5,137.5 Z"/></g>
<g><path style="opacity:1" fill="#fffdf3" d="M 396.5,104.5 C 401.993,103.178 404.493,105.178 404,110.5C 403.586,110.957 403.086,111.291 402.5,111.5C 400.564,109.022 398.564,109.022 396.5,111.5C 395.286,109.141 395.286,106.808 396.5,104.5 Z"/></g>
<g><path style="opacity:1" fill="#fffdf9" d="M 397.5,96.5 C 402.159,96.0146 403.492,97.848 401.5,102C 399.866,102.494 398.199,102.66 396.5,102.5C 396.325,100.379 396.659,98.3792 397.5,96.5 Z"/></g>
<g><path style="opacity:1" fill="#fffded" d="M 397.5,89.5 C 398.873,89.3433 400.207,89.51 401.5,90C 402.474,92.702 401.474,94.0354 398.5,94C 396.452,92.7741 396.119,91.2741 397.5,89.5 Z"/></g>
<g><path style="opacity:1" fill="#fffce9" d="M 397.5,83.5 C 398.833,83.5 400.167,83.5 401.5,83.5C 401.778,85.3464 401.111,86.6798 399.5,87.5C 397.889,86.6798 397.222,85.3464 397.5,83.5 Z"/></g>
<g><path style="opacity:1" fill="#fde6e4" d="M 336.5,143.5 C 335.833,143.5 335.167,143.5 334.5,143.5C 332.744,142.448 332.077,140.781 332.5,138.5C 333.833,138.5 335.167,138.5 336.5,138.5C 336.5,140.167 336.5,141.833 336.5,143.5 Z"/></g>
<g><path style="opacity:1" fill="#fde3e1" d="M 463.5,143.5 C 463.167,143.5 462.833,143.5 462.5,143.5C 462.34,141.801 462.506,140.134 463,138.5C 465.125,137.149 466.292,137.815 466.5,140.5C 466.484,142.516 465.484,143.516 463.5,143.5 Z"/></g>
<g><path style="opacity:1" fill="#e84a15" d="M 398.5,141.5 C 401.069,143.47 403.736,145.47 406.5,147.5C 401.833,148.833 397.167,148.833 392.5,147.5C 393.665,146.416 394.998,145.583 396.5,145C 397.823,144.184 398.489,143.017 398.5,141.5 Z"/></g>
<g><path style="opacity:1" fill="#e84715" d="M 376.5,145.5 C 378.423,145.795 380.09,146.628 381.5,148C 379.098,148.814 376.765,148.647 374.5,147.5C 375.243,146.818 375.909,146.151 376.5,145.5 Z"/></g>
<g><path style="opacity:1" fill="#e84615" d="M 420.5,145.5 C 422.941,146.084 424.441,147.417 425,149.5C 422.595,148.726 420.095,148.226 417.5,148C 418.571,147.148 419.571,146.315 420.5,145.5 Z"/></g>
<g><path style="opacity:1" fill="#e84415" d="M 355.5,145.5 C 358.776,146.799 362.11,148.132 365.5,149.5C 360.992,150.454 356.492,151.454 352,152.5C 351.5,152.167 351,151.833 350.5,151.5C 352.938,150.069 354.604,148.069 355.5,145.5 Z"/></g>
<g><path style="opacity:1" fill="#e84815" d="M 440.5,145.5 C 443.374,147.016 446.041,149.016 448.5,151.5C 448,151.833 447.5,152.167 447,152.5C 442.009,151.701 437.175,150.534 432.5,149C 435.476,148.295 438.142,147.129 440.5,145.5 Z"/></g>
<g><path style="opacity:1" fill="#e9a318" d="M 284.5,155.5 C 283.533,154.194 282.199,153.527 280.5,153.5C 280.81,156.713 280.477,159.713 279.5,162.5C 278.971,158.649 279.638,155.149 281.5,152C 280.739,149.821 281.072,147.655 282.5,145.5C 283.808,148.706 284.475,152.04 284.5,155.5 Z"/></g>
<g><path style="opacity:1" fill="#ef710f" d="M 337.5,152.5 C 343.92,153.103 343.754,154.103 337,155.5C 336.5,155.167 336,154.833 335.5,154.5C 336.243,153.818 336.909,153.151 337.5,152.5 Z"/></g>
<g><path style="opacity:1" fill="#ee710f" d="M 456.5,152.5 C 458.527,152.338 460.527,152.505 462.5,153C 462.957,153.414 463.291,153.914 463.5,154.5C 462.169,155.166 460.669,155.166 459,154.5C 457.624,154.316 456.791,153.649 456.5,152.5 Z"/></g>
<g><path style="opacity:1" fill="#f9dd08" d="M 284.5,155.5 C 285.06,157.801 285.56,160.134 286,162.5C 288.5,160 291,157.5 293.5,155C 295.579,154.192 297.579,154.359 299.5,155.5C 293.861,159.139 289.194,163.806 285.5,169.5C 285.938,170.506 286.604,170.506 287.5,169.5C 288.93,167.614 290.597,165.947 292.5,164.5C 295.575,166.416 295.909,168.583 293.5,171C 294.449,171.617 295.282,171.451 296,170.5C 296.833,173 298,173.167 299.5,171C 298.692,170.692 298.025,170.192 297.5,169.5C 303.85,166.153 304.85,167.153 300.5,172.5C 298.247,173.253 296.413,174.586 295,176.5C 290.575,176.032 286.408,174.698 282.5,172.5C 278.633,174.208 274.633,175.541 270.5,176.5C 268.63,175.134 266.63,173.967 264.5,173C 263.87,171.108 262.87,169.441 261.5,168C 263.3,167.764 264.966,168.264 266.5,169.5C 265.41,170.609 265.41,171.609 266.5,172.5C 267.251,171.624 267.751,170.624 268,169.5C 268.826,171.405 269.993,171.739 271.5,170.5C 269.219,168.304 269.553,166.304 272.5,164.5C 273.685,165.853 275.019,167.02 276.5,168C 275.833,168.667 275.167,169.333 274.5,170C 275.935,169.689 277.268,169.855 278.5,170.5C 278.833,170 279.167,169.5 279.5,169C 274.994,163.996 269.994,159.496 264.5,155.5C 266.421,154.359 268.421,154.192 270.5,155C 273.71,157.387 276.71,159.887 279.5,162.5C 280.477,159.713 280.81,156.713 280.5,153.5C 282.199,153.527 283.533,154.194 284.5,155.5 Z"/></g>
<g><path style="opacity:1" fill="#e63b18" d="M 512.5,154.5 C 512.26,157.579 512.593,160.579 513.5,163.5C 512.263,164.281 511.263,165.281 510.5,166.5C 511,166.833 511.5,167.167 512,167.5C 514,164.833 516,164.833 518,167.5C 519.784,166.667 519.784,165.667 518,164.5C 517.502,161.183 517.335,157.85 517.5,154.5C 519.833,154.5 522.167,154.5 524.5,154.5C 526.28,155.99 526.946,157.99 526.5,160.5C 525.704,163.225 524.037,165.391 521.5,167C 522.244,168.039 523.244,168.539 524.5,168.5C 523.489,171.018 522.156,171.018 520.5,168.5C 517.003,168.664 513.503,168.664 510,168.5C 508.35,171.106 506.85,171.106 505.5,168.5C 506.5,168.5 507.5,168.5 508.5,168.5C 508.5,167.5 508.5,166.5 508.5,165.5C 505.639,165.487 504.639,164.321 505.5,162C 503.006,159.577 503.006,157.244 505.5,155C 507.81,154.503 510.143,154.337 512.5,154.5 Z"/></g>
<g><path style="opacity:1" fill="#e42a17" d="M 390.5,156.5 C 396.5,156.5 402.5,156.5 408.5,156.5C 408.5,157.833 408.5,159.167 408.5,160.5C 402.491,160.666 396.491,160.499 390.5,160C 389.316,158.855 389.316,157.688 390.5,156.5 Z"/></g>
<g><path style="opacity:1" fill="#e7401d" d="M 496.5,156.5 C 498.167,156.5 499.833,156.5 501.5,156.5C 501.325,158.621 501.659,160.621 502.5,162.5C 502.617,164.484 501.95,166.15 500.5,167.5C 500.833,167.833 501.167,168.167 501.5,168.5C 503.156,165.982 504.489,165.982 505.5,168.5C 502.396,169.733 499.396,170.566 496.5,171C 497.308,170.692 497.975,170.192 498.5,169.5C 497.345,168.05 495.845,167.05 494,166.5C 492.861,162.579 493.695,159.246 496.5,156.5 Z"/></g>
<g><path style="opacity:1" fill="#2f8d71" d="M 368.5,157.5 C 371.5,157.5 374.5,157.5 377.5,157.5C 377.5,158.833 377.5,160.167 377.5,161.5C 371.531,162.385 365.531,163.052 359.5,163.5C 359.5,161.833 359.5,160.167 359.5,158.5C 362.713,158.81 365.713,158.477 368.5,157.5 Z"/></g>
<g><path style="opacity:1" fill="#fffbdc" d="M 382.5,156.5 C 383.5,156.5 384.5,156.5 385.5,156.5C 385.884,158.665 385.217,160.332 383.5,161.5C 381.296,160.218 380.962,158.551 382.5,156.5 Z"/></g>
<g><path style="opacity:1" fill="#fffad1" d="M 413.5,156.5 C 417.161,156.35 418.161,157.85 416.5,161C 412.707,161.487 411.707,159.987 413.5,156.5 Z"/></g>
<g><path style="opacity:1" fill="#2d8c71" d="M 421.5,157.5 C 427.21,157.471 432.877,157.971 438.5,159C 439.38,160.356 439.714,161.856 439.5,163.5C 433.51,162.76 427.51,162.094 421.5,161.5C 421.5,160.167 421.5,158.833 421.5,157.5 Z"/></g>
<g><path style="opacity:1" fill="#ffdcb1" d="M 517.5,151.5 C 524.395,152.032 531.062,153.532 537.5,156C 540.485,159.079 541.152,162.579 539.5,166.5C 539.206,164.724 539.04,162.724 539,160.5C 538.578,158.574 537.411,157.574 535.5,157.5C 533.565,156.85 531.565,156.517 529.5,156.5C 529.747,158.858 529.081,160.858 527.5,162.5C 526.662,162.158 526.328,161.492 526.5,160.5C 526.946,157.99 526.28,155.99 524.5,154.5C 522.031,153.683 519.365,153.183 516.5,153C 517.056,152.617 517.389,152.117 517.5,151.5 Z"/></g>
<g><path style="opacity:1" fill="#e53119" d="M 535.5,157.5 C 537.691,160.238 537.858,163.238 536,166.5C 534.271,166.974 533.105,167.974 532.5,169.5C 533.463,170.363 533.463,171.03 532.5,171.5C 531.675,169.64 530.675,167.974 529.5,166.5C 528.326,165.486 527.66,164.153 527.5,162.5C 529.081,160.858 529.747,158.858 529.5,156.5C 531.565,156.517 533.565,156.85 535.5,157.5 Z"/></g>
<g><path style="opacity:1" fill="#fffce8" d="M 351.5,160.5 C 352.5,160.5 353.5,160.5 354.5,160.5C 354.5,161.833 354.5,163.167 354.5,164.5C 351.046,164.733 350.046,163.4 351.5,160.5 Z"/></g>
<g><path style="opacity:1" fill="#fffdee" d="M 444.5,160.5 C 446.346,160.222 447.68,160.889 448.5,162.5C 447.68,164.111 446.346,164.778 444.5,164.5C 444.5,163.167 444.5,161.833 444.5,160.5 Z"/></g>
<g><path style="opacity:1" fill="#fde0c4" d="M 512.5,151.5 C 515.098,152.472 515.098,153.472 512.5,154.5C 509.204,152.973 506.038,153.307 503,155.5C 502.874,158.063 502.707,160.396 502.5,162.5C 501.659,160.621 501.325,158.621 501.5,156.5C 499.833,156.5 498.167,156.5 496.5,156.5C 494.629,156.859 493.129,157.859 492,159.5C 491.874,162.063 491.707,164.396 491.5,166.5C 490.883,166.389 490.383,166.056 490,165.5C 489.333,163.5 489.333,161.5 490,159.5C 493.72,154.724 498.553,152.224 504.5,152C 507.146,151.503 509.813,151.336 512.5,151.5 Z"/></g>
<g><path style="opacity:1" fill="#fee136" d="M 535.5,157.5 C 537.411,157.574 538.578,158.574 539,160.5C 539.04,162.724 539.206,164.724 539.5,166.5C 538.739,167.391 537.739,168.058 536.5,168.5C 535.614,169.325 535.281,170.325 535.5,171.5C 534.778,170.449 533.778,169.782 532.5,169.5C 533.105,167.974 534.271,166.974 536,166.5C 537.858,163.238 537.691,160.238 535.5,157.5 Z"/></g>
<g><path style="opacity:1" fill="#facd32" d="M 517.5,151.5 C 517.389,152.117 517.056,152.617 516.5,153C 519.365,153.183 522.031,153.683 524.5,154.5C 522.167,154.5 519.833,154.5 517.5,154.5C 517.335,157.85 517.502,161.183 518,164.5C 519.784,165.667 519.784,166.667 518,167.5C 516,164.833 514,164.833 512,167.5C 511.5,167.167 511,166.833 510.5,166.5C 511.263,165.281 512.263,164.281 513.5,163.5C 512.593,160.579 512.26,157.579 512.5,154.5C 515.098,153.472 515.098,152.472 512.5,151.5C 514.676,150.287 515.009,148.62 513.5,146.5C 514.325,145.614 515.325,145.281 516.5,145.5C 516.67,146.822 516.337,147.989 515.5,149C 516.066,149.995 516.733,150.828 517.5,151.5 Z"/></g>
<g><path style="opacity:1" fill="#fcd225" d="M 512.5,154.5 C 510.143,154.337 507.81,154.503 505.5,155C 503.006,157.244 503.006,159.577 505.5,162C 504.639,164.321 505.639,165.487 508.5,165.5C 508.5,166.5 508.5,167.5 508.5,168.5C 507.5,168.5 506.5,168.5 505.5,168.5C 504.489,165.982 503.156,165.982 501.5,168.5C 501.167,168.167 500.833,167.833 500.5,167.5C 501.95,166.15 502.617,164.484 502.5,162.5C 502.707,160.396 502.874,158.063 503,155.5C 506.038,153.307 509.204,152.973 512.5,154.5 Z"/></g>
<g><path style="opacity:1" fill="#fbd50f" d="M 526.5,160.5 C 526.328,161.492 526.662,162.158 527.5,162.5C 527.66,164.153 528.326,165.486 529.5,166.5C 529.631,167.376 529.298,168.043 528.5,168.5C 526.844,165.982 525.511,165.982 524.5,168.5C 523.244,168.539 522.244,168.039 521.5,167C 524.037,165.391 525.704,163.225 526.5,160.5 Z"/></g>
<g><path style="opacity:1" fill="#e84b13" d="M 281.5,166.5 C 283.337,166.639 283.67,167.306 282.5,168.5C 281.702,168.043 281.369,167.376 281.5,166.5 Z"/></g>
<g><path style="opacity:1" fill="#f17f1e" d="M 529.5,166.5 C 530.675,167.974 531.675,169.64 532.5,171.5C 533.463,171.03 533.463,170.363 532.5,169.5C 533.778,169.782 534.778,170.449 535.5,171.5C 534.564,172.974 533.23,173.974 531.5,174.5C 531.45,171.848 530.45,170.848 528.5,171.5C 527.717,169.712 526.384,168.712 524.5,168.5C 525.511,165.982 526.844,165.982 528.5,168.5C 529.298,168.043 529.631,167.376 529.5,166.5 Z"/></g>
<g><path style="opacity:1" fill="#f4d71d" d="M 496.5,156.5 C 493.695,159.246 492.861,162.579 494,166.5C 495.845,167.05 497.345,168.05 498.5,169.5C 497.975,170.192 497.308,170.692 496.5,171C 499.396,170.566 502.396,169.733 505.5,168.5C 506.85,171.106 508.35,171.106 510,168.5C 513.503,168.664 517.003,168.664 520.5,168.5C 522.156,171.018 523.489,171.018 524.5,168.5C 526.384,168.712 527.717,169.712 528.5,171.5C 530.45,170.848 531.45,171.848 531.5,174.5C 530.395,175.6 529.062,176.267 527.5,176.5C 523.285,175.73 519.118,174.396 515,172.5C 510.518,175.056 505.685,176.056 500.5,175.5C 496.465,173.465 493.465,170.465 491.5,166.5C 491.707,164.396 491.874,162.063 492,159.5C 493.129,157.859 494.629,156.859 496.5,156.5 Z"/></g>
<g><path style="opacity:1" fill="#ed6c12" d="M 527.5,176.5 C 518.318,176.827 509.318,176.493 500.5,175.5C 505.685,176.056 510.518,175.056 515,172.5C 519.118,174.396 523.285,175.73 527.5,176.5 Z"/></g>
<g><path style="opacity:1" fill="#f39a93" d="M 534.5,181.5 C 521.833,181.5 509.167,181.5 496.5,181.5C 496.5,184.833 496.5,188.167 496.5,191.5C 495.518,188.038 495.185,184.371 495.5,180.5C 508.677,180.171 521.677,180.505 534.5,181.5 Z"/></g>
<g><path style="opacity:1" fill="#fef8f8" d="M 279.5,231.5 C 276.399,231.692 273.399,232.358 270.5,233.5C 269.833,221.674 269.167,210.007 268.5,198.5C 266.539,196.037 264.372,193.703 262,191.5C 261.501,187.848 261.335,184.182 261.5,180.5C 274.5,180.5 287.5,180.5 300.5,180.5C 300.665,184.182 300.499,187.848 300,191.5C 297.626,193.539 295.626,195.872 294,198.5C 293.5,208.828 293.334,219.161 293.5,229.5C 288.609,229.532 283.943,230.199 279.5,231.5 Z"/></g>
<g><path style="opacity:1" fill="#fefcfb" d="M 534.5,181.5 C 536.181,188.742 534.015,194.409 528,198.5C 527.5,210.162 527.333,221.829 527.5,233.5C 519.707,231.009 511.707,229.675 503.5,229.5C 503.666,219.161 503.5,208.828 503,198.5C 500.628,196.297 498.461,193.963 496.5,191.5C 496.5,188.167 496.5,184.833 496.5,181.5C 509.167,181.5 521.833,181.5 534.5,181.5 Z"/></g>
<g><path style="opacity:1" fill="#feea03" d="M 324.5,185.5 C 324.5,214.5 324.5,243.5 324.5,272.5C 327.167,272.5 329.833,272.5 332.5,272.5C 332.5,298.167 332.5,323.833 332.5,349.5C 328.805,347.131 326.305,343.797 325,339.5C 325.582,344.076 327.082,348.41 329.5,352.5C 329.5,354.167 329.5,355.833 329.5,357.5C 325.879,353.929 323.546,349.596 322.5,344.5C 321.517,290.523 321.184,236.523 321.5,182.5C 373.501,182.333 425.501,182.5 477.5,183C 426.33,183.476 375.33,184.309 324.5,185.5 Z"/></g>
<g><path style="opacity:1" fill="#fee51f" d="M 329.5,357.5 C 329.5,355.833 329.5,354.167 329.5,352.5C 339.146,364.171 351.146,372.671 365.5,378C 370.764,378.899 375.764,380.565 380.5,383C 407.131,386.673 431.798,381.34 454.5,367C 464.736,360.335 471.403,351.169 474.5,339.5C 474.5,317.167 474.5,294.833 474.5,272.5C 474.5,243.5 474.5,214.5 474.5,185.5C 449.5,185.5 424.5,185.5 399.5,185.5C 374.5,185.5 349.5,185.5 324.5,185.5C 375.33,184.309 426.33,183.476 477.5,183C 425.501,182.5 373.501,182.333 321.5,182.5C 321.184,236.523 321.517,290.523 322.5,344.5C 321.732,343.737 321.232,342.737 321,341.5C 320.5,288.168 320.333,234.834 320.5,181.5C 373.167,181.5 425.833,181.5 478.5,181.5C 478.667,234.834 478.5,288.168 478,341.5C 473.883,353.946 466.383,363.779 455.5,371C 416.032,395.273 377.365,394.273 339.5,368C 335.288,365.289 331.954,361.789 329.5,357.5 Z"/></g>
<g><path style="opacity:1" fill="#fdfafa" d="M 399.5,185.5 C 424.5,185.5 449.5,185.5 474.5,185.5C 474.5,214.5 474.5,243.5 474.5,272.5C 457.833,272.5 441.167,272.5 424.5,272.5C 424.44,255.335 416.107,245.001 399.5,241.5C 399.5,222.833 399.5,204.167 399.5,185.5 Z"/></g>
<g><path style="opacity:1" fill="#e42d18" d="M 324.5,185.5 C 349.5,185.5 374.5,185.5 399.5,185.5C 399.5,204.167 399.5,222.833 399.5,241.5C 416.107,245.001 424.44,255.335 424.5,272.5C 441.167,272.5 457.833,272.5 474.5,272.5C 474.5,294.833 474.5,317.167 474.5,339.5C 463.476,356.925 447.643,364.259 427,361.5C 414.084,357.507 404.917,349.507 399.5,337.5C 399.5,326.167 399.5,314.833 399.5,303.5C 396.881,303.768 394.381,303.435 392,302.5C 391.5,318.163 391.333,333.83 391.5,349.5C 388.81,352.185 385.81,354.518 382.5,356.5C 382.667,335.831 382.5,315.164 382,294.5C 378.291,289.414 375.958,283.747 375,277.5C 374.5,305.165 374.333,332.831 374.5,360.5C 371.782,361.043 369.115,361.709 366.5,362.5C 366.5,332.5 366.5,302.5 366.5,272.5C 363.5,272.5 360.5,272.5 357.5,272.5C 357.5,302.5 357.5,332.5 357.5,362.5C 354.659,362.44 351.993,361.774 349.5,360.5C 349.5,331.167 349.5,301.833 349.5,272.5C 346.833,272.5 344.167,272.5 341.5,272.5C 341.5,300.5 341.5,328.5 341.5,356.5C 337.918,354.88 334.918,352.547 332.5,349.5C 332.5,323.833 332.5,298.167 332.5,272.5C 329.833,272.5 327.167,272.5 324.5,272.5C 324.5,243.5 324.5,214.5 324.5,185.5 Z"/></g>
<g><path style="opacity:1" fill="#fbe536" d="M 450.5,203.5 C 447.32,201.745 444.32,199.745 441.5,197.5C 441.772,191.118 442.772,190.952 444.5,197C 445.744,197.456 446.577,196.956 447,195.5C 447.065,197.883 447.898,198.55 449.5,197.5C 450.251,198.376 450.751,199.376 451,200.5C 451.414,200.043 451.914,199.709 452.5,199.5C 456.541,202.488 455.874,203.822 450.5,203.5 Z"/></g>
<g><path style="opacity:0.996" fill="#ef7b73" d="M 268.5,198.5 C 269.167,210.007 269.833,221.674 270.5,233.5C 273.399,232.358 276.399,231.692 279.5,231.5C 278.5,232.167 277.5,232.833 276.5,233.5C 273.833,233.833 271.167,234.167 268.5,234.5C 268.5,222.5 268.5,210.5 268.5,198.5 Z"/></g>
<g><path style="opacity:1" fill="#eb5a14" d="M 357.5,198.5 C 358.489,203.975 358.822,209.642 358.5,215.5C 356.5,215.5 354.5,215.5 352.5,215.5C 353.167,211.167 353.833,206.833 354.5,202.5C 356.414,205.684 357.08,209.351 356.5,213.5C 352.828,214.045 353.162,214.378 357.5,214.5C 357.5,209.167 357.5,203.833 357.5,198.5 Z"/></g>
<g><path style="opacity:1" fill="#ec6213" d="M 366.5,198.5 C 366.5,203.833 366.5,209.167 366.5,214.5C 370.838,214.378 371.172,214.045 367.5,213.5C 367.335,210.15 367.502,206.817 368,203.5C 369.292,202.209 370.458,202.209 371.5,203.5C 370.351,203.791 369.684,204.624 369.5,206C 371.072,208.919 371.739,212.085 371.5,215.5C 369.5,215.5 367.5,215.5 365.5,215.5C 365.178,209.642 365.511,203.975 366.5,198.5 Z"/></g>
<g><path style="opacity:1" fill="#972663" d="M 441.5,197.5 C 444.32,199.745 447.32,201.745 450.5,203.5C 450.508,208.959 449.675,214.292 448,219.5C 447.586,219.043 447.086,218.709 446.5,218.5C 443.809,224.399 445.143,229.899 450.5,235C 455.234,236.312 457.901,234.645 458.5,230C 457.707,225.953 456.707,221.953 455.5,218C 456.193,213.19 456.693,208.357 457,203.5C 458.802,201.322 460.969,199.489 463.5,198C 464.332,197.312 464.998,197.479 465.5,198.5C 464.5,199.833 463.5,201.167 462.5,202.5C 463.167,203.167 463.833,203.833 464.5,204.5C 462.081,206.754 460.248,209.421 459,212.5C 459.028,219.924 459.694,227.257 461,234.5C 458.539,236.554 455.706,238.054 452.5,239C 451.919,239.893 451.585,240.893 451.5,242C 452.974,244.967 454.64,247.801 456.5,250.5C 456.304,252.286 455.471,253.619 454,254.5C 453.73,257.224 453.23,259.891 452.5,262.5C 453.506,263.396 453.506,264.062 452.5,264.5C 451.561,262.947 450.394,261.613 449,260.5C 447.347,260.82 446.347,261.82 446,263.5C 445.424,261.623 445.591,259.789 446.5,258C 445.354,257.241 444.354,256.574 443.5,256C 443.645,255.228 443.978,254.561 444.5,254C 446.473,253.505 448.473,253.338 450.5,253.5C 450.5,252.5 450.5,251.5 450.5,250.5C 448.801,250.66 447.134,250.494 445.5,250C 443.842,247.325 442.009,244.825 440,242.5C 439.782,245.426 439.282,248.26 438.5,251C 435.518,251.498 432.518,251.665 429.5,251.5C 429.762,252.978 429.429,254.311 428.5,255.5C 427.376,254.086 426.376,252.586 425.5,251C 424.004,250.493 422.837,250.993 422,252.5C 421.908,248.911 423.741,246.744 427.5,246C 426.062,245.781 424.729,245.281 423.5,244.5C 425.044,242.554 427.044,242.054 429.5,243C 430.704,245.277 432.37,245.777 434.5,244.5C 432.895,241.686 431.895,238.686 431.5,235.5C 434.518,235.665 437.518,235.498 440.5,235C 437.244,233.541 434.577,231.374 432.5,228.5C 431.28,229.711 430.113,229.711 429,228.5C 427.437,231.044 425.937,231.044 424.5,228.5C 420.416,230.369 418.916,233.369 420,237.5C 418.39,235.403 417.223,233.07 416.5,230.5C 415.186,231.313 414.019,232.313 413,233.5C 412.959,230.975 413.793,228.642 415.5,226.5C 412.728,224.915 412.894,223.915 416,223.5C 419.947,226.149 423.447,225.483 426.5,221.5C 422.278,219.446 419.278,216.279 417.5,212C 415.782,211.654 414.115,211.154 412.5,210.5C 411.914,210.709 411.414,211.043 411,211.5C 411.24,209.533 412.073,207.7 413.5,206C 412.768,204.235 411.435,203.068 409.5,202.5C 412.034,201.223 414.534,201.223 417,202.5C 417.221,199.057 418.221,198.724 420,201.5C 421.124,208.29 425.124,211.957 432,212.5C 433.5,212.167 435,211.833 436.5,211.5C 433.048,207.939 429.381,204.606 425.5,201.5C 427.269,200.373 428.603,200.873 429.5,203C 431.025,204.009 432.692,204.509 434.5,204.5C 434.5,202.833 434.5,201.167 434.5,199.5C 437.108,199.6 439.442,198.933 441.5,197.5 Z"/></g>
<g><path style="opacity:1" fill="#ee6e0e" d="M 337.5,225.5 C 339.5,225.5 341.5,225.5 343.5,225.5C 343.5,235.167 343.5,244.833 343.5,254.5C 341.167,254.5 338.833,254.5 336.5,254.5C 338.265,253.539 340.265,253.205 342.5,253.5C 342.5,244.5 342.5,235.5 342.5,226.5C 340.585,226.784 338.919,226.451 337.5,225.5 Z"/></g>
<g><path style="opacity:1" fill="#feeb00" d="M 366.5,198.5 C 365.511,203.975 365.178,209.642 365.5,215.5C 367.5,215.5 369.5,215.5 371.5,215.5C 371.739,212.085 371.072,208.919 369.5,206C 369.684,204.624 370.351,203.791 371.5,203.5C 371.369,204.376 371.702,205.043 372.5,205.5C 373.386,204.675 373.719,203.675 373.5,202.5C 375.124,202.36 376.29,203.027 377,204.5C 379.119,201.523 380.286,201.856 380.5,205.5C 378.981,208.601 378.315,211.934 378.5,215.5C 381.167,215.5 383.833,215.5 386.5,215.5C 386.5,218.833 386.5,222.167 386.5,225.5C 384.5,225.5 382.5,225.5 380.5,225.5C 380.666,234.839 380.5,244.173 380,253.5C 377.409,257.44 375.909,261.773 375.5,266.5C 373.833,266.5 372.167,266.5 370.5,266.5C 370.136,262.529 369.803,258.529 369.5,254.5C 364.422,247.861 359.256,247.861 354,254.5C 351.849,257.216 352.016,259.716 354.5,262C 353.643,262.689 352.977,263.522 352.5,264.5C 347.208,265.495 341.875,265.828 336.5,265.5C 336.5,261.833 336.5,258.167 336.5,254.5C 338.833,254.5 341.167,254.5 343.5,254.5C 343.5,244.833 343.5,235.167 343.5,225.5C 341.5,225.5 339.5,225.5 337.5,225.5C 337.5,222.167 337.5,218.833 337.5,215.5C 340.167,215.5 342.833,215.5 345.5,215.5C 345.739,212.085 345.072,208.919 343.5,206C 343.915,202.894 344.915,202.728 346.5,205.5C 347.386,204.675 347.719,203.675 347.5,202.5C 348.5,202.5 349.5,202.5 350.5,202.5C 350.281,203.675 350.614,204.675 351.5,205.5C 352.141,204.007 353.141,203.007 354.5,202.5C 353.833,206.833 353.167,211.167 352.5,215.5C 354.5,215.5 356.5,215.5 358.5,215.5C 358.822,209.642 358.489,203.975 357.5,198.5C 355.774,196.18 355.107,193.513 355.5,190.5C 356.5,190.5 357.5,190.5 358.5,190.5C 358.649,194.123 359.816,194.457 362,191.5C 362.95,192.022 363.784,192.689 364.5,193.5C 365.524,192.147 366.857,191.48 368.5,191.5C 368.834,194.188 368.168,196.521 366.5,198.5 Z"/></g>
<g><path style="opacity:1" fill="#fbcf03" d="M 292.5,237.5 C 292.884,239.665 292.217,241.332 290.5,242.5C 288.965,239.263 287.298,236.097 285.5,233C 286.448,232.517 287.448,232.351 288.5,232.5C 288.755,235.016 289.589,237.35 291,239.5C 291.278,238.584 291.778,237.918 292.5,237.5 Z"/></g>
<g><path style="opacity:1" fill="#f7aa07" d="M 292.5,237.5 C 292.643,235.738 292.309,234.071 291.5,232.5C 292.833,231.167 294.167,231.167 295.5,232.5C 294.725,234.396 293.725,236.063 292.5,237.5 Z"/></g>
<g><path style="opacity:1" fill="#fac304" d="M 509.5,232.5 C 512.187,232.336 514.854,232.503 517.5,233C 518.451,233.718 518.617,234.551 518,235.5C 516.989,234.663 515.822,234.33 514.5,234.5C 514.5,237.167 514.5,239.833 514.5,242.5C 513.448,242.649 512.448,242.483 511.5,242C 512.783,239.205 512.783,236.372 511.5,233.5C 508.796,236.392 508.129,236.058 509.5,232.5 Z"/></g>
<g><path style="opacity:1" fill="#f07c10" d="M 272.5,236.5 C 272.413,237.498 272.08,238.665 271.5,240C 269.112,240.865 267.612,240.032 267,237.5C 266.536,238.094 266.369,238.761 266.5,239.5C 264.451,239.294 264.117,238.461 265.5,237C 267.941,235.608 270.274,235.441 272.5,236.5 Z"/></g>
<g><path style="opacity:1" fill="#fbc704" d="M 493.5,232.5 C 494.552,232.351 495.552,232.517 496.5,233C 494.967,244.784 491.967,245.284 487.5,234.5C 487.833,234.167 488.167,233.833 488.5,233.5C 491.884,240.377 493.551,240.044 493.5,232.5 Z"/></g>
<g><path style="opacity:1" fill="#fac404" d="M 298.5,231.5 C 300.936,231.317 303.103,231.984 305,233.5C 305.688,234.332 305.521,234.998 304.5,235.5C 303.032,233.667 301.365,233.334 299.5,234.5C 301.751,235.818 303.751,237.484 305.5,239.5C 305.023,240.478 304.357,241.311 303.5,242C 301.19,242.497 298.857,242.663 296.5,242.5C 296.343,241.127 296.51,239.793 297,238.5C 298.959,241.789 301.125,242.123 303.5,239.5C 301.821,238.218 299.987,237.218 298,236.5C 297.36,234.735 297.527,233.068 298.5,231.5 Z"/></g>
<g><path style="opacity:1" fill="#f1a10f" d="M 348.5,229.5 C 356.078,230.754 358.745,235.088 356.5,242.5C 352.5,242.5 348.5,242.5 344.5,242.5C 345.386,240.278 345.386,238.112 344.5,236C 345.646,233.694 346.98,231.527 348.5,229.5 Z"/></g>
<g><path style="opacity:1" fill="#383d81" d="M 348.5,232.5 C 350.144,232.286 351.644,232.62 353,233.5C 353.495,235.473 353.662,237.473 353.5,239.5C 351.5,239.5 349.5,239.5 347.5,239.5C 347.448,237.097 347.781,234.764 348.5,232.5 Z"/></g>
<g><path style="opacity:1" fill="#fac104" d="M 521.5,234.5 C 528.99,234.252 530.657,236.919 526.5,242.5C 526.608,243.442 526.941,244.275 527.5,245C 525.227,244.683 524.227,243.183 524.5,240.5C 523.5,240.5 522.5,240.5 521.5,240.5C 521.33,241.822 521.663,242.989 522.5,244C 520.681,244.783 519.348,244.283 518.5,242.5C 519.9,239.965 520.9,237.298 521.5,234.5 Z"/></g>
<g><path style="opacity:1" fill="#e74316" d="M 522.5,236.5 C 524.665,236.116 526.332,236.783 527.5,238.5C 524.83,240.09 523.163,239.423 522.5,236.5 Z"/></g>
<g><path style="opacity:1" fill="#fcd403" d="M 272.5,236.5 C 273.598,237.601 273.765,238.934 273,240.5C 269.309,241.675 268.809,243.508 271.5,246C 270.552,246.483 269.552,246.649 268.5,246.5C 268.122,244.079 267.455,241.746 266.5,239.5C 266.369,238.761 266.536,238.094 267,237.5C 267.612,240.032 269.112,240.865 271.5,240C 272.08,238.665 272.413,237.498 272.5,236.5 Z"/></g>
<g><path style="opacity:1" fill="#f1a40e" d="M 370.5,229.5 C 372.199,229.34 373.866,229.506 375.5,230C 382.92,240.462 380.253,244.628 367.5,242.5C 367.335,239.482 367.502,236.482 368,233.5C 369.481,232.529 370.315,231.196 370.5,229.5 Z"/></g>
<g><path style="opacity:1" fill="#314084" d="M 371.5,232.5 C 375.976,232.8 377.31,234.967 375.5,239C 373.866,239.494 372.199,239.66 370.5,239.5C 370.298,237.05 370.631,234.717 371.5,232.5 Z"/></g>
<g><path style="opacity:1" fill="#f9b906" d="M 499.5,231.5 C 500.978,231.238 502.311,231.571 503.5,232.5C 502.607,235.084 502.274,237.751 502.5,240.5C 504.722,240.822 506.556,240.155 508,238.5C 508.225,241.394 506.725,242.727 503.5,242.5C 502.167,242.167 500.833,241.833 499.5,241.5C 500.739,238.17 500.739,234.837 499.5,231.5 Z"/></g>
<g><path style="opacity:1" fill="#fcd003" d="M 276.5,233.5 C 277.873,233.343 279.207,233.51 280.5,234C 279.398,236.401 279.231,238.901 280,241.5C 281.779,242.479 283.445,242.146 285,240.5C 285.483,241.448 285.649,242.448 285.5,243.5C 283.167,243.5 280.833,243.5 278.5,243.5C 278.149,240.097 277.482,236.763 276.5,233.5 Z"/></g>
<g><path style="opacity:1" fill="#e48f87" d="M 285.5,245.5 C 287.948,244.527 290.615,244.194 293.5,244.5C 293.5,248.167 293.5,251.833 293.5,255.5C 293.5,259.167 293.5,262.833 293.5,266.5C 293.5,267.167 293.167,267.5 292.5,267.5C 292.5,260.167 292.5,252.833 292.5,245.5C 290.167,245.5 287.833,245.5 285.5,245.5 Z"/></g>
<g><path style="opacity:1" fill="#1b3c8a" d="M 393.5,244.5 C 407.487,243.582 416.32,249.915 420,263.5C 422.652,275.86 419.819,286.693 411.5,296C 394.705,304.322 383.872,299.155 379,280.5C 375.887,265.087 380.721,253.087 393.5,244.5 Z"/></g>
<g><path style="opacity:1" fill="#fef7f7" d="M 527.5,253.5 C 527.5,258.167 527.5,262.833 527.5,267.5C 527.5,271.167 527.5,274.833 527.5,278.5C 518.928,275.214 510.928,270.881 503.5,265.5C 503.5,262.167 503.5,258.833 503.5,255.5C 503.5,251.833 503.5,248.167 503.5,244.5C 511.721,244.626 519.721,245.96 527.5,248.5C 527.5,250.167 527.5,251.833 527.5,253.5 Z"/></g>
<g><path style="opacity:1" fill="#fefcfb" d="M 285.5,245.5 C 287.833,245.5 290.167,245.5 292.5,245.5C 292.5,252.833 292.5,260.167 292.5,267.5C 285.14,271.512 277.806,275.512 270.5,279.5C 269.506,269.681 269.173,259.681 269.5,249.5C 274.664,247.542 279.997,246.209 285.5,245.5 Z"/></g>
<g><path style="opacity:1" fill="#f3a30e" d="M 370.5,266.5 C 369.167,266.5 367.833,266.5 366.5,266.5C 366.665,262.818 366.499,259.152 366,255.5C 363.333,252.833 360.667,252.833 358,255.5C 357.502,258.817 357.335,262.15 357.5,265.5C 350.351,266.694 343.351,266.694 336.5,265.5C 341.875,265.828 347.208,265.495 352.5,264.5C 352.977,263.522 353.643,262.689 354.5,262C 352.016,259.716 351.849,257.216 354,254.5C 359.256,247.861 364.422,247.861 369.5,254.5C 369.803,258.529 370.136,262.529 370.5,266.5 Z"/></g>
<g><path style="opacity:1" fill="#fac005" d="M 536.5,240.5 C 538.171,243.608 539.171,247.108 539.5,251C 536.307,251.811 535.307,250.811 536.5,248C 534.636,244.654 532.969,244.821 531.5,248.5C 530.5,248.167 529.833,247.5 529.5,246.5C 532.461,245.204 534.794,243.204 536.5,240.5 Z"/></g>
<g><path style="opacity:1" fill="#8b2211" d="M 268.5,253.5 C 268.5,257.833 268.5,262.167 268.5,266.5C 264.619,265.097 260.619,264.097 256.5,263.5C 256.643,261.738 256.309,260.071 255.5,258.5C 258.462,253.249 262.795,251.582 268.5,253.5 Z"/></g>
<g><path style="opacity:1" fill="#8b2211" d="M 527.5,267.5 C 527.5,262.833 527.5,258.167 527.5,253.5C 530.553,253.319 533.553,253.152 536.5,253C 542.407,254.201 544.407,257.534 542.5,263C 537.437,264.411 532.437,265.911 527.5,267.5 Z"/></g>
<g><path style="opacity:1" fill="#243f89" d="M 366.5,266.5 C 363.287,266.81 360.287,266.477 357.5,265.5C 357.335,262.15 357.502,258.817 358,255.5C 360.667,252.833 363.333,252.833 366,255.5C 366.499,259.152 366.665,262.818 366.5,266.5 Z"/></g>
<g><path style="opacity:1" fill="#8d2211" d="M 293.5,255.5 C 296.518,255.335 299.518,255.502 302.5,256C 303.76,257.814 303.76,259.647 302.5,261.5C 299.755,263.665 296.755,265.332 293.5,266.5C 293.5,262.833 293.5,259.167 293.5,255.5 Z"/></g>
<g><path style="opacity:1" fill="#8d2212" d="M 503.5,255.5 C 503.5,258.833 503.5,262.167 503.5,265.5C 501.286,264.126 498.953,262.959 496.5,262C 495.233,260.204 495.233,258.371 496.5,256.5C 498.743,255.526 501.076,255.192 503.5,255.5 Z"/></g>
<g><path style="opacity:1" fill="#dfd723" d="M 408.5,251.5 C 409.496,251.414 410.329,251.748 411,252.5C 411.498,255.482 411.665,258.482 411.5,261.5C 414.91,261.384 416.244,263.05 415.5,266.5C 414.325,266.281 413.325,266.614 412.5,267.5C 412.834,269.335 412.834,271.002 412.5,272.5C 410.235,273.647 407.902,273.814 405.5,273C 406.097,271.111 406.431,269.278 406.5,267.5C 405.675,266.614 404.675,266.281 403.5,266.5C 402.756,263.05 404.09,261.384 407.5,261.5C 407.253,258.061 407.586,254.728 408.5,251.5 Z"/></g>
<g><path style="opacity:1" fill="#ddd524" d="M 389.5,250.5 C 390.222,250.918 390.722,251.584 391,252.5C 391.498,255.482 391.665,258.482 391.5,261.5C 394.91,261.384 396.244,263.05 395.5,266.5C 394.5,266.5 393.5,266.5 392.5,266.5C 392.244,268.792 392.577,270.959 393.5,273C 391.19,273.497 388.857,273.663 386.5,273.5C 385.752,271.416 385.752,269.416 386.5,267.5C 385.675,266.614 384.675,266.281 383.5,266.5C 382.756,263.05 384.09,261.384 387.5,261.5C 387.01,257.513 387.676,253.846 389.5,250.5 Z"/></g>
<g><path style="opacity:0.996" fill="#e2837a" d="M 269.5,249.5 C 269.173,259.681 269.506,269.681 270.5,279.5C 270.44,280.043 270.107,280.376 269.5,280.5C 268.507,275.88 268.173,271.214 268.5,266.5C 268.5,262.167 268.5,257.833 268.5,253.5C 268.232,251.901 268.566,250.568 269.5,249.5 Z"/></g>
<g><path style="opacity:1" fill="#f8b805" d="M 366.5,362.5 C 366.167,362.5 365.833,362.5 365.5,362.5C 365.5,332.833 365.5,303.167 365.5,273.5C 363.167,273.5 360.833,273.5 358.5,273.5C 358.5,303.167 358.5,332.833 358.5,362.5C 358.167,362.5 357.833,362.5 357.5,362.5C 357.5,332.5 357.5,302.5 357.5,272.5C 360.5,272.5 363.5,272.5 366.5,272.5C 366.5,302.5 366.5,332.5 366.5,362.5 Z"/></g>
<g><path style="opacity:1" fill="#ffee03" d="M 349.5,360.5 C 346.52,359.677 343.853,358.343 341.5,356.5C 341.5,328.5 341.5,300.5 341.5,272.5C 344.167,272.5 346.833,272.5 349.5,272.5C 349.5,301.833 349.5,331.167 349.5,360.5 Z"/></g>
<g><path style="opacity:1" fill="#ffee07" d="M 365.5,362.5 C 363.167,363.833 360.833,363.833 358.5,362.5C 358.5,332.833 358.5,303.167 358.5,273.5C 360.833,273.5 363.167,273.5 365.5,273.5C 365.5,303.167 365.5,332.833 365.5,362.5 Z"/></g>
<g><path style="opacity:1" fill="#e6da20" d="M 398.5,275.5 C 399.496,275.414 400.329,275.748 401,276.5C 401.498,279.482 401.665,282.482 401.5,285.5C 403.635,285.147 404.968,285.98 405.5,288C 404.907,289.882 403.573,290.882 401.5,291C 403.162,294.175 402.495,296.675 399.5,298.5C 395.797,296.587 395.13,294.087 397.5,291C 392.632,289.557 392.298,287.39 396.5,284.5C 397.249,281.473 397.916,278.473 398.5,275.5 Z"/></g>
<g><path style="opacity:1" fill="#f59c0b" d="M 463.5,287.5 C 461.464,286.374 460.13,284.707 459.5,282.5C 460.932,280.353 462.765,280.02 465,281.5C 465.941,283.989 465.441,285.989 463.5,287.5 Z"/></g>
<g><path style="opacity:1" fill="#fdfbfc" d="M 539.5,355.5 C 535.57,354.881 531.737,353.881 528,352.5C 523.084,353.104 518.25,354.104 513.5,355.5C 510.822,354.825 508.156,354.158 505.5,353.5C 502.375,352.521 499.042,352.187 495.5,352.5C 495.335,349.15 495.502,345.817 496,342.5C 498.333,340.167 500.667,337.833 503,335.5C 503.167,317.824 503.667,300.157 504.5,282.5C 512.27,286.133 519.77,290.133 527,294.5C 527.333,308.167 527.667,321.833 528,335.5C 534.015,339.591 536.181,345.258 534.5,352.5C 536.167,352.5 537.833,352.5 539.5,352.5C 539.5,353.5 539.5,354.5 539.5,355.5 Z"/></g>
<g><path style="opacity:1" fill="#fdfcfc" d="M 290.5,284.5 C 292.162,301.309 293.162,318.309 293.5,335.5C 295.461,337.963 297.628,340.297 300,342.5C 300.498,345.817 300.665,349.15 300.5,352.5C 301.833,352.5 303.167,352.5 304.5,352.5C 304.5,353.5 304.5,354.5 304.5,355.5C 296.393,353.122 288.226,353.122 280,355.5C 276.976,355.519 274.142,354.853 271.5,353.5C 268.375,352.521 265.042,352.187 261.5,352.5C 261.335,349.15 261.502,345.817 262,342.5C 264.35,340.317 266.517,337.984 268.5,335.5C 269.333,322.179 269.833,308.846 270,295.5C 276.622,291.439 283.455,287.772 290.5,284.5 Z"/></g>
<g><path style="opacity:1" fill="#f2938c" d="M 290.5,284.5 C 291.209,283.596 292.209,283.263 293.5,283.5C 293.5,300.833 293.5,318.167 293.5,335.5C 293.162,318.309 292.162,301.309 290.5,284.5 Z"/></g>
<g><path style="opacity:1" fill="#feec02" d="M 382.5,356.5 C 379.899,357.801 377.232,359.134 374.5,360.5C 374.333,332.831 374.5,305.165 375,277.5C 375.958,283.747 378.291,289.414 382,294.5C 382.5,315.164 382.667,335.831 382.5,356.5 Z"/></g>
<g><path style="opacity:1" fill="#912211" d="M 258.5,300.5 C 264.575,301.76 266.741,305.427 265,311.5C 262.316,317.141 260.983,316.808 261,310.5C 256.743,307.745 255.91,304.411 258.5,300.5 Z"/></g>
<g><path style="opacity:1" fill="#912211" d="M 536.5,300.5 C 540.693,300.362 543.027,302.362 543.5,306.5C 540.248,307.752 537.914,310.085 536.5,313.5C 534.127,312.45 533.127,310.617 533.5,308C 533.821,305.195 534.821,302.695 536.5,300.5 Z"/></g>
<g><path style="opacity:1" fill="#ffee06" d="M 399.5,337.5 C 398.351,342.453 395.684,346.453 391.5,349.5C 391.333,333.83 391.5,318.163 392,302.5C 394.381,303.435 396.881,303.768 399.5,303.5C 399.5,314.833 399.5,326.167 399.5,337.5 Z"/></g>
<g><path style="opacity:1" fill="#f9bb05" d="M 459.5,282.5 C 460.13,284.707 461.464,286.374 463.5,287.5C 463.908,290.53 464.574,293.53 465.5,296.5C 462.995,300.931 462.995,305.264 465.5,309.5C 465.547,311.038 464.88,312.038 463.5,312.5C 462.833,312.5 462.167,312.5 461.5,312.5C 457.819,310.073 453.986,310.073 450,312.5C 447.496,312.307 445.163,311.641 443,310.5C 442.167,310.833 441.333,311.167 440.5,311.5C 442.55,315.059 445.55,317.226 449.5,318C 452.275,320.39 454.275,323.224 455.5,326.5C 454.833,326.5 454.5,326.833 454.5,327.5C 449.266,326.768 446.1,323.768 445,318.5C 442.984,316.316 440.817,314.316 438.5,312.5C 439.761,324.645 439.761,336.645 438.5,348.5C 437.833,349.833 437.167,349.833 436.5,348.5C 436.771,342.397 436.104,336.397 434.5,330.5C 439.26,308.309 435.927,306.809 424.5,326C 418.9,327.431 415.567,330.931 414.5,336.5C 413.781,334.909 412.781,333.409 411.5,332C 411.728,331.601 412.062,331.435 412.5,331.5C 416.949,329.55 419.783,326.217 421,321.5C 422.762,318.732 425.262,317.232 428.5,317C 430.351,315.316 432.018,313.483 433.5,311.5C 432.667,311.167 431.833,310.833 431,310.5C 428.837,311.641 426.504,312.307 424,312.5C 420.923,311.133 417.756,310.633 414.5,311C 412.285,313.242 411.952,315.742 413.5,318.5C 412.167,319.833 410.833,319.833 409.5,318.5C 410.868,315.332 410.535,312.332 408.5,309.5C 409.967,306.734 410.8,303.734 411,300.5C 411.965,298.74 413.132,298.406 414.5,299.5C 411.833,302.167 411.833,304.833 414.5,307.5C 420.863,306.319 427.196,306.319 433.5,307.5C 431.128,303.617 427.795,301.117 423.5,300C 420.892,297.711 419.725,294.878 420,291.5C 425,292.5 428,295.5 429,300.5C 436.244,308.798 438.077,307.465 434.5,296.5C 438.254,286.422 435.088,283.089 425,286.5C 423.833,286.333 422.667,286.167 421.5,286C 422.38,284.644 422.714,283.144 422.5,281.5C 425.488,281.439 428.321,282.105 431,283.5C 433.217,282.953 435.217,281.953 437,280.5C 438.555,281.848 440.389,282.514 442.5,282.5C 448.382,281.773 454.048,281.773 459.5,282.5 Z"/></g>
<g><path style="opacity:1" fill="#e53016" d="M 459.5,287.5 C 460.649,287.791 461.316,288.624 461.5,290C 458.909,294.484 458.909,298.984 461.5,303.5C 461.167,306.5 459.5,308.167 456.5,308.5C 451.932,305.899 447.432,305.899 443,308.5C 442.167,308.167 441.333,307.833 440.5,307.5C 442.872,303.617 446.205,301.117 450.5,300C 452.768,298.442 453.934,296.276 454,293.5C 456.04,291.63 457.873,289.63 459.5,287.5 Z"/></g>
<g><path style="opacity:1" fill="#e63716" d="M 453.5,284.5 C 455.604,284.201 457.604,284.534 459.5,285.5C 457.128,289.383 453.795,291.883 449.5,293C 446.732,294.762 445.232,297.262 445,300.5C 437.756,308.798 435.923,307.465 439.5,296.5C 435.593,286.405 438.927,283.072 449.5,286.5C 451.333,286.415 452.666,285.748 453.5,284.5 Z"/></g>
<g><path style="opacity:1" fill="#e74115" d="M 435.5,282.5 C 436.5,282.5 437.5,282.5 438.5,282.5C 438.5,283.5 438.5,284.5 438.5,285.5C 437.5,285.5 436.5,285.5 435.5,285.5C 435.5,284.5 435.5,283.5 435.5,282.5 Z"/></g>
<g><path style="opacity:1" fill="#e53117" d="M 412.5,331.5 C 412.5,329.5 412.5,327.5 412.5,325.5C 413.725,324.848 414.392,323.681 414.5,322C 414.486,320.615 414.152,319.449 413.5,318.5C 411.952,315.742 412.285,313.242 414.5,311C 417.756,310.633 420.923,311.133 424,312.5C 426.504,312.307 428.837,311.641 431,310.5C 431.833,310.833 432.667,311.167 433.5,311.5C 432.018,313.483 430.351,315.316 428.5,317C 425.262,317.232 422.762,318.732 421,321.5C 419.783,326.217 416.949,329.55 412.5,331.5 Z"/></g>
<g><path style="opacity:1" fill="#e42c17" d="M 461.5,312.5 C 460.972,315.667 460.305,318.834 459.5,322C 459.889,324.416 460.555,326.749 461.5,329C 461.167,329.833 460.833,330.667 460.5,331.5C 459.145,329.479 457.479,327.812 455.5,326.5C 454.275,323.224 452.275,320.39 449.5,318C 445.55,317.226 442.55,315.059 440.5,311.5C 441.333,311.167 442.167,310.833 443,310.5C 445.163,311.641 447.496,312.307 450,312.5C 453.986,310.073 457.819,310.073 461.5,312.5 Z"/></g>
<g><path style="opacity:1" fill="#e53017" d="M 436.5,348.5 C 433.887,349.435 431.221,349.602 428.5,349C 425.227,345.852 421.56,344.185 417.5,344C 414.587,342.041 413.587,339.541 414.5,336.5C 415.567,330.931 418.9,327.431 424.5,326C 435.927,306.809 439.26,308.309 434.5,330.5C 436.104,336.397 436.771,342.397 436.5,348.5 Z"/></g>
<g><path style="opacity:1" fill="#e53017" d="M 454.5,327.5 C 455.793,329.296 457.293,330.963 459,332.5C 460.252,335.634 460.252,338.634 459,341.5C 454.399,342.643 450.065,344.977 446,348.5C 443.453,349.785 440.953,349.785 438.5,348.5C 439.761,336.645 439.761,324.645 438.5,312.5C 440.817,314.316 442.984,316.316 445,318.5C 446.1,323.768 449.266,326.768 454.5,327.5 Z"/></g>
<g><path style="opacity:1" fill="#fddb02" d="M 409.5,318.5 C 410.833,319.833 412.167,319.833 413.5,318.5C 414.152,319.449 414.486,320.615 414.5,322C 414.392,323.681 413.725,324.848 412.5,325.5C 412.785,323.712 412.452,322.045 411.5,320.5C 410.83,322.291 410.163,323.958 409.5,325.5C 408.167,323.167 408.167,320.833 409.5,318.5 Z"/></g>
<g><path style="opacity:1" fill="#fdfbf8" d="M 399.5,337.5 C 404.917,349.507 414.084,357.507 427,361.5C 447.643,364.259 463.476,356.925 474.5,339.5C 471.403,351.169 464.736,360.335 454.5,367C 431.798,381.34 407.131,386.673 380.5,383C 375.764,380.565 370.764,378.899 365.5,378C 351.146,372.671 339.146,364.171 329.5,352.5C 327.082,348.41 325.582,344.076 325,339.5C 326.305,343.797 328.805,347.131 332.5,349.5C 334.918,352.547 337.918,354.88 341.5,356.5C 343.853,358.343 346.52,359.677 349.5,360.5C 351.993,361.774 354.659,362.44 357.5,362.5C 357.833,362.5 358.167,362.5 358.5,362.5C 360.833,363.833 363.167,363.833 365.5,362.5C 365.833,362.5 366.167,362.5 366.5,362.5C 369.115,361.709 371.782,361.043 374.5,360.5C 377.232,359.134 379.899,357.801 382.5,356.5C 385.81,354.518 388.81,352.185 391.5,349.5C 395.684,346.453 398.351,342.453 399.5,337.5 Z"/></g>
<g><path style="opacity:1" fill="#f7ad07" d="M 461.5,312.5 C 462.167,312.5 462.833,312.5 463.5,312.5C 463.474,315.876 464.141,319.042 465.5,322C 465.307,324.504 464.641,326.837 463.5,329C 465.028,331.281 465.528,333.781 465,336.5C 460.578,342.255 455.578,347.255 450,351.5C 449.439,350.978 448.772,350.645 448,350.5C 445.865,351.127 443.698,351.627 441.5,352C 440.275,353.563 438.775,354.73 437,355.5C 434.438,353.485 431.605,351.985 428.5,351C 424.645,352.056 421.145,351.223 418,348.5C 415.413,344.239 412.413,340.239 409,336.5C 408.472,333.781 408.972,331.281 410.5,329C 410.352,327.744 410.018,326.577 409.5,325.5C 410.163,323.958 410.83,322.291 411.5,320.5C 412.452,322.045 412.785,323.712 412.5,325.5C 412.5,327.5 412.5,329.5 412.5,331.5C 412.062,331.435 411.728,331.601 411.5,332C 412.781,333.409 413.781,334.909 414.5,336.5C 413.587,339.541 414.587,342.041 417.5,344C 421.56,344.185 425.227,345.852 428.5,349C 431.221,349.602 433.887,349.435 436.5,348.5C 437.167,349.833 437.833,349.833 438.5,348.5C 440.953,349.785 443.453,349.785 446,348.5C 450.065,344.977 454.399,342.643 459,341.5C 460.252,338.634 460.252,335.634 459,332.5C 457.293,330.963 455.793,329.296 454.5,327.5C 454.5,326.833 454.833,326.5 455.5,326.5C 457.479,327.812 459.145,329.479 460.5,331.5C 460.833,330.667 461.167,329.833 461.5,329C 460.555,326.749 459.889,324.416 459.5,322C 460.305,318.834 460.972,315.667 461.5,312.5 Z"/></g>
<g><path style="opacity:1" fill="#7c97bf" d="M 495.5,352.5 C 499.042,352.187 502.375,352.521 505.5,353.5C 500.453,353.337 495.453,353.671 490.5,354.5C 491.552,352.744 493.219,352.077 495.5,352.5 Z"/></g>
<g><path style="opacity:1" fill="#8aa0c4" d="M 261.5,352.5 C 265.042,352.187 268.375,352.521 271.5,353.5C 266.438,353.274 261.438,353.608 256.5,354.5C 257.552,352.744 259.219,352.077 261.5,352.5 Z"/></g>
<g><path style="opacity:1" fill="#193e91" d="M 271.5,353.5 C 274.142,354.853 276.976,355.519 280,355.5C 288.226,353.122 296.393,353.122 304.5,355.5C 304.5,356.833 304.5,358.167 304.5,359.5C 301.238,357.812 297.738,356.812 294,356.5C 289.044,356.987 284.211,357.987 279.5,359.5C 276.519,359.561 273.852,358.728 271.5,357C 266.448,356.274 261.448,356.441 256.5,357.5C 256.5,356.5 256.5,355.5 256.5,354.5C 261.438,353.608 266.438,353.274 271.5,353.5 Z"/></g>
<g><path style="opacity:1" fill="#294594" d="M 539.5,355.5 C 539.5,356.833 539.5,358.167 539.5,359.5C 535.231,358.198 530.898,357.198 526.5,356.5C 522.418,357.61 518.251,358.61 514,359.5C 510.841,359.653 508.008,358.819 505.5,357C 500.463,356.337 495.463,356.504 490.5,357.5C 490.5,356.5 490.5,355.5 490.5,354.5C 495.453,353.671 500.453,353.337 505.5,353.5C 508.156,354.158 510.822,354.825 513.5,355.5C 518.25,354.104 523.084,353.104 528,352.5C 531.737,353.881 535.57,354.881 539.5,355.5 Z"/></g>
<g><path style="opacity:1" fill="#d4deeb" d="M 304.5,359.5 C 304.5,360.5 304.5,361.5 304.5,362.5C 296.329,359.925 288.163,359.925 280,362.5C 272.218,360.503 264.384,360.17 256.5,361.5C 256.5,360.167 256.5,358.833 256.5,357.5C 261.448,356.441 266.448,356.274 271.5,357C 273.852,358.728 276.519,359.561 279.5,359.5C 284.211,357.987 289.044,356.987 294,356.5C 297.738,356.812 301.238,357.812 304.5,359.5 Z"/></g>
<g><path style="opacity:1" fill="#fee92c" d="M 401.5,370.5 C 400.833,370.5 400.167,370.5 399.5,370.5C 394.979,370.313 392.312,367.98 391.5,363.5C 393.744,356.548 398.077,354.881 404.5,358.5C 407.779,361.396 408.279,364.73 406,368.5C 404.67,369.582 403.17,370.249 401.5,370.5 Z"/></g>
<g><path style="opacity:1" fill="#d5dce9" d="M 539.5,359.5 C 539.5,360.5 539.5,361.5 539.5,362.5C 535.246,361.418 530.913,360.751 526.5,360.5C 522.36,360.688 518.36,361.354 514.5,362.5C 506.566,360.428 498.566,360.095 490.5,361.5C 490.5,360.167 490.5,358.833 490.5,357.5C 495.463,356.504 500.463,356.337 505.5,357C 508.008,358.819 510.841,359.653 514,359.5C 518.251,358.61 522.418,357.61 526.5,356.5C 530.898,357.198 535.231,358.198 539.5,359.5 Z"/></g>
<g><path style="opacity:1" fill="#e84415" d="M 398.5,358.5 C 401.525,359.033 402.858,360.867 402.5,364C 400.63,371.342 398.963,371.176 397.5,363.5C 397.728,361.793 398.062,360.126 398.5,358.5 Z"/></g>
<g><path style="opacity:1" fill="#163f91" d="M 304.5,362.5 C 304.5,363.833 304.5,365.167 304.5,366.5C 300.902,365.302 297.236,364.302 293.5,363.5C 288.824,364.504 284.158,365.504 279.5,366.5C 275.084,365.197 270.584,364.197 266,363.5C 262.682,363.622 259.515,364.289 256.5,365.5C 256.5,364.167 256.5,362.833 256.5,361.5C 264.384,360.17 272.218,360.503 280,362.5C 288.163,359.925 296.329,359.925 304.5,362.5 Z"/></g>
<g><path style="opacity:1" fill="#1a3d8e" d="M 539.5,362.5 C 539.5,364.167 539.5,365.833 539.5,367.5C 535.952,365.048 531.952,363.715 527.5,363.5C 523.056,364.736 518.556,365.736 514,366.5C 509.299,364.95 504.465,363.95 499.5,363.5C 496.303,363.449 493.303,364.115 490.5,365.5C 490.5,364.167 490.5,362.833 490.5,361.5C 498.566,360.095 506.566,360.428 514.5,362.5C 518.36,361.354 522.36,360.688 526.5,360.5C 530.913,360.751 535.246,361.418 539.5,362.5 Z"/></g>
<g><path style="opacity:1" fill="#e6ebf2" d="M 304.5,366.5 C 304.5,367.5 304.5,368.5 304.5,369.5C 296.161,366.89 287.828,366.89 279.5,369.5C 274.852,368.516 270.186,367.516 265.5,366.5C 262.361,366.702 259.361,367.369 256.5,368.5C 256.5,367.5 256.5,366.5 256.5,365.5C 259.515,364.289 262.682,363.622 266,363.5C 270.584,364.197 275.084,365.197 279.5,366.5C 284.158,365.504 288.824,364.504 293.5,363.5C 297.236,364.302 300.902,365.302 304.5,366.5 Z"/></g>
<g><path style="opacity:1" fill="#e3e7ef" d="M 539.5,367.5 C 539.5,368.167 539.5,368.833 539.5,369.5C 535.396,368.523 531.23,367.857 527,367.5C 522.632,367.957 518.298,368.623 514,369.5C 509.559,368.907 505.226,367.907 501,366.5C 497.406,366.903 493.906,367.57 490.5,368.5C 490.5,367.5 490.5,366.5 490.5,365.5C 493.303,364.115 496.303,363.449 499.5,363.5C 504.465,363.95 509.299,364.95 514,366.5C 518.556,365.736 523.056,364.736 527.5,363.5C 531.952,363.715 535.952,365.048 539.5,367.5 Z"/></g>
<g><path style="opacity:1" fill="#194193" d="M 304.5,369.5 C 304.5,370.833 304.5,372.167 304.5,373.5C 296.563,369.652 288.563,369.652 280.5,373.5C 275.376,372.26 270.209,371.26 265,370.5C 261.97,370.481 259.137,371.147 256.5,372.5C 256.5,371.167 256.5,369.833 256.5,368.5C 259.361,367.369 262.361,366.702 265.5,366.5C 270.186,367.516 274.852,368.516 279.5,369.5C 287.828,366.89 296.161,366.89 304.5,369.5 Z"/></g>
<g><path style="opacity:1" fill="#1d4192" d="M 539.5,369.5 C 539.5,371.167 539.5,372.833 539.5,374.5C 535.866,372.298 531.866,370.964 527.5,370.5C 522.956,371.442 518.456,372.442 514,373.5C 509.354,371.966 504.52,370.966 499.5,370.5C 496.308,370.449 493.308,371.116 490.5,372.5C 490.5,371.167 490.5,369.833 490.5,368.5C 493.906,367.57 497.406,366.903 501,366.5C 505.226,367.907 509.559,368.907 514,369.5C 518.298,368.623 522.632,367.957 527,367.5C 531.23,367.857 535.396,368.523 539.5,369.5 Z"/></g>
<g><path style="opacity:1" fill="#21594b" d="M 399.5,370.5 C 400.167,370.5 400.833,370.5 401.5,370.5C 401.369,371.376 401.702,372.043 402.5,372.5C 406.589,368.985 410.923,368.652 415.5,371.5C 414.619,372.971 413.286,373.804 411.5,374C 407.496,374.881 403.496,375.714 399.5,376.5C 398.572,374.665 397.406,374.332 396,375.5C 391.364,375.364 387.531,373.531 384.5,370C 389.825,368.743 394.492,369.91 398.5,373.5C 399.386,372.675 399.719,371.675 399.5,370.5 Z"/></g>
<g><path style="opacity:1" fill="#ebf0f6" d="M 304.5,373.5 C 288.868,375.485 272.868,376.151 256.5,375.5C 256.5,374.5 256.5,373.5 256.5,372.5C 259.137,371.147 261.97,370.481 265,370.5C 270.209,371.26 275.376,372.26 280.5,373.5C 288.563,369.652 296.563,369.652 304.5,373.5 Z"/></g>
<g><path style="opacity:1" fill="#eef1f6" d="M 539.5,374.5 C 523.342,375.496 507.009,375.83 490.5,375.5C 490.5,374.5 490.5,373.5 490.5,372.5C 493.308,371.116 496.308,370.449 499.5,370.5C 504.52,370.966 509.354,371.966 514,373.5C 518.456,372.442 522.956,371.442 527.5,370.5C 531.866,370.964 535.866,372.298 539.5,374.5 Z"/></g>
<g><path style="opacity:0.514" fill="#f59f98" d="M 224.5,354.5 C 225.117,354.611 225.617,354.944 226,355.5C 226.687,359.58 227.687,363.58 229,367.5C 232.604,374.385 236.437,381.051 240.5,387.5C 232.636,379.816 227.469,370.483 225,359.5C 224.506,357.866 224.34,356.199 224.5,354.5 Z"/></g>
<g><path style="opacity:1" fill="#de6462" d="M 304.5,352.5 C 305.492,360.316 305.826,368.316 305.5,376.5C 288.991,376.83 272.658,376.496 256.5,375.5C 272.868,376.151 288.868,375.485 304.5,373.5C 304.5,372.167 304.5,370.833 304.5,369.5C 304.5,368.5 304.5,367.5 304.5,366.5C 304.5,365.167 304.5,363.833 304.5,362.5C 304.5,361.5 304.5,360.5 304.5,359.5C 304.5,358.167 304.5,356.833 304.5,355.5C 304.5,354.5 304.5,353.5 304.5,352.5 Z"/></g>
<g><path style="opacity:0.275" fill="#f5a099" d="M 574.5,354.5 C 572.934,366.904 567.934,377.571 559.5,386.5C 562.976,380.221 566.476,373.888 570,367.5C 571.313,363.58 572.313,359.58 573,355.5C 573.383,354.944 573.883,354.611 574.5,354.5 Z"/></g>
<g><path style="opacity:0.686" fill="#f7aea7" d="M 250.5,397.5 C 252.713,399.86 255.379,401.694 258.5,403C 259.823,403.816 260.489,404.983 260.5,406.5C 255.771,405.018 252.438,402.018 250.5,397.5 Z"/></g>
<g><path style="opacity:0.514" fill="#f7aca5" d="M 549.5,396.5 C 547.108,401.225 543.441,404.558 538.5,406.5C 538.511,404.983 539.177,403.816 540.5,403C 543.938,401.389 546.938,399.223 549.5,396.5 Z"/></g>
<g><path style="opacity:0.537" fill="#f48d83" d="M 534.5,408.5 C 532.178,410.664 529.511,412.331 526.5,413.5C 526.369,412.624 526.702,411.957 527.5,411.5C 529.662,409.98 531.995,408.98 534.5,408.5 Z"/></g>
<g><path style="opacity:0.996" fill="#f69d95" d="M 283.5,418.5 C 286.916,418.528 289.916,419.528 292.5,421.5C 292.565,421.938 292.399,422.272 292,422.5C 289.124,421.052 286.291,419.719 283.5,418.5 Z"/></g>
<g><path style="opacity:0.078" fill="#f6a099" d="M 517.5,417.5 C 514.34,419.063 511.174,420.729 508,422.5C 507.329,421.748 506.496,421.414 505.5,421.5C 509.216,419.595 513.216,418.261 517.5,417.5 Z"/></g>
<g><path style="opacity:0.043" fill="#f7c4c1" d="M 504.5,421.5 C 504.179,423.048 503.179,423.715 501.5,423.5C 501.973,422.094 502.973,421.427 504.5,421.5 Z"/></g>
<g><path style="opacity:0.043" fill="#f6aba4" d="M 499.5,422.5 C 499.5,423.5 499.5,424.5 499.5,425.5C 498.167,425.5 496.833,425.5 495.5,425.5C 494.571,424.685 493.571,423.852 492.5,423C 494.81,422.503 497.143,422.337 499.5,422.5 Z"/></g>
<g><path style="opacity:0.043" fill="#f6a59e" d="M 299.5,422.5 C 301.857,422.337 304.19,422.503 306.5,423C 305.429,423.852 304.429,424.685 303.5,425.5C 302.167,425.5 300.833,425.5 299.5,425.5C 299.5,424.5 299.5,423.5 299.5,422.5 Z"/></g>
</svg>
